<svg version="1.1" id="Layer_1" xmlns="http://www.w3.org/2000/svg" xmlns:xlink="http://www.w3.org/1999/xlink" x="0px" y="0px"
	 width="100%" viewBox="0 0 682 652" enable-background="new 0 0 682 652" xml:space="preserve">
<path fill="none" opacity="1.000000" stroke="none" 
	d="
M0.999999,547.000000 
	C1.000000,365.030518 1.000000,183.061035 1.000000,1.045773 
	C228.264694,1.045773 455.529419,1.045773 682.897095,1.045773 
	C682.897095,218.228226 682.897095,435.456512 682.897095,652.842407 
	C455.666748,652.842407 228.333389,652.842407 1.000000,652.842407 
	C1.000000,648.930359 1.000000,644.931152 1.443896,640.445435 
	C3.718252,639.953857 5.555045,640.044861 7.377924,639.924744 
	C11.952394,639.623291 14.880805,636.915283 14.900751,632.289124 
	C15.012674,606.330139 15.033588,580.370300 14.932320,554.411316 
	C14.913260,549.525757 11.941966,546.931885 6.959167,546.752380 
	C4.978323,546.680969 2.986709,546.908508 0.999999,547.000000 
M66.964714,290.500000 
	C66.964714,375.762848 66.964714,461.025696 66.964714,546.679688 
	C59.384418,546.679688 52.405376,546.669556 45.426376,546.682434 
	C37.304790,546.697388 35.028866,548.945129 35.025459,557.009521 
	C35.015392,580.838196 35.022671,604.666870 35.024353,628.495544 
	C35.025017,637.885925 37.066422,639.951294 46.356842,639.951416 
	C171.165817,639.952515 295.974792,639.952698 420.783783,639.952942 
	C496.768951,639.953125 572.754150,639.955139 648.739319,639.949646 
	C656.495605,639.949036 658.943359,637.539062 658.946533,629.900513 
	C658.956665,605.571899 658.959656,581.243347 658.943298,556.914734 
	C658.937866,548.862244 656.686768,546.686157 648.470276,546.675537 
	C641.498474,546.666504 634.526611,546.673645 627.041260,546.673645 
	C627.041260,544.272522 627.041321,542.311340 627.041321,540.350098 
	C627.040039,424.372742 627.038879,308.395386 627.036926,192.418015 
	C627.036743,184.012161 625.151184,182.095398 616.833862,182.086853 
	C606.545959,182.076279 596.258118,182.084320 585.486694,182.084320 
	C585.486694,179.659012 585.486755,177.704208 585.486633,175.749420 
	C585.483154,126.259125 585.483459,76.768829 585.472961,27.278532 
	C585.471008,18.149771 583.369934,16.025330 574.421387,16.025002 
	C422.950958,16.019463 271.480560,16.015141 120.010139,16.012056 
	C110.568619,16.011864 108.492210,18.053822 108.491615,27.357117 
	C108.488426,76.847458 108.490112,126.337799 108.490112,175.828140 
	C108.490112,177.772797 108.490112,179.717438 108.490112,182.100159 
	C97.657928,182.100159 87.364777,182.092453 77.071632,182.102600 
	C68.939018,182.110611 66.976082,184.034805 66.974098,192.019028 
	C66.966049,224.512680 66.967049,257.006348 66.964714,290.500000 
z"/>
<path fill="#D9083C" opacity="1.000000" stroke="none" 
	d="
M0.999999,547.468628 
	C2.986709,546.908508 4.978323,546.680969 6.959167,546.752380 
	C11.941966,546.931885 14.913260,549.525757 14.932320,554.411316 
	C15.033588,580.370300 15.012674,606.330139 14.900751,632.289124 
	C14.880805,636.915283 11.952394,639.623291 7.377924,639.924744 
	C5.555045,640.044861 3.718252,639.953857 1.443896,639.979492 
	C1.000000,609.312439 1.000000,578.624878 0.999999,547.468628 
z"/>
<path fill="#D9083C" opacity="1.000000" stroke="none" 
	d="
M66.964714,290.000000 
	C66.967049,257.006348 66.966049,224.512680 66.974098,192.019028 
	C66.976082,184.034805 68.939018,182.110611 77.071632,182.102600 
	C87.364777,182.092453 97.657928,182.100159 108.490112,182.100159 
	C108.490112,179.717438 108.490112,177.772797 108.490112,175.828140 
	C108.490112,126.337799 108.488426,76.847458 108.491615,27.357117 
	C108.492210,18.053822 110.568619,16.011864 120.010139,16.012056 
	C271.480560,16.015141 422.950958,16.019463 574.421387,16.025002 
	C583.369934,16.025330 585.471008,18.149771 585.472961,27.278532 
	C585.483459,76.768829 585.483154,126.259125 585.486633,175.749420 
	C585.486755,177.704208 585.486694,179.659012 585.486694,182.084320 
	C596.258118,182.084320 606.545959,182.076279 616.833862,182.086853 
	C625.151184,182.095398 627.036743,184.012161 627.036926,192.418015 
	C627.038879,308.395386 627.040039,424.372742 627.041321,540.350098 
	C627.041321,542.311340 627.041260,544.272522 627.041260,546.673645 
	C634.526611,546.673645 641.498474,546.666504 648.470276,546.675537 
	C656.686768,546.686157 658.937866,548.862244 658.943298,556.914734 
	C658.959656,581.243347 658.956665,605.571899 658.946533,629.900513 
	C658.943359,637.539062 656.495605,639.949036 648.739319,639.949646 
	C572.754150,639.955139 496.768951,639.953125 420.783783,639.952942 
	C295.974792,639.952698 171.165817,639.952515 46.356842,639.951416 
	C37.066422,639.951294 35.025017,637.885925 35.024353,628.495544 
	C35.022671,604.666870 35.015392,580.838196 35.025459,557.009521 
	C35.028866,548.945129 37.304790,546.697388 45.426376,546.682434 
	C52.405376,546.669556 59.384418,546.679688 66.964714,546.679688 
	C66.964714,461.025696 66.964714,375.762848 66.964714,290.000000 
M347.499878,455.695068 
	C421.765594,455.695068 496.031311,455.695068 570.497009,455.695068 
	C570.497009,342.060181 570.497009,229.025421 570.497009,116.042229 
	C421.297577,116.042229 272.419159,116.042229 123.446991,116.042229 
	C123.446991,229.309692 123.446991,342.211334 123.446991,455.695038 
	C197.967712,455.695038 272.233765,455.695038 347.499878,455.695068 
M585.488708,254.499756 
	C585.487549,322.332001 585.485901,390.164276 585.485535,457.996521 
	C585.485535,468.717804 584.069519,470.155853 573.453491,470.156067 
	C425.954742,470.158905 278.455994,470.160767 130.957260,470.161591 
	C125.957367,470.161621 120.955276,470.237579 115.958244,470.114441 
	C111.654411,470.008392 109.192986,467.617401 108.659294,463.382080 
	C108.431313,461.572845 108.472870,459.723663 108.472755,457.892609 
	C108.467163,372.726685 108.470512,287.560730 108.472809,202.394806 
	C108.472862,200.640411 108.472816,198.886002 108.472816,197.031952 
	C99.229332,197.031952 90.637009,197.031952 81.999680,197.031952 
	C81.999680,313.632172 81.999680,429.983704 81.999680,546.294006 
	C258.955750,546.294006 435.502625,546.294006 612.106812,546.294006 
	C612.106812,429.649780 612.106812,313.404907 612.106812,197.151001 
	C603.095093,197.151001 594.375610,197.151001 585.488647,197.151001 
	C585.488647,216.174957 585.488647,234.837357 585.488708,254.499756 
M571.500183,561.663025 
	C528.886536,561.663025 486.272888,561.663025 443.148346,561.663025 
	C443.148346,571.757751 443.159546,581.378784 443.144745,590.999756 
	C443.133392,598.373352 440.680389,600.840698 433.275787,600.842224 
	C375.792694,600.854126 318.309601,600.857056 260.826508,600.846680 
	C253.170380,600.845276 250.848297,598.431030 250.839050,590.600586 
	C250.827881,581.140442 250.836411,571.680298 250.836411,561.952393 
	C183.698776,561.952393 116.991531,561.952393 50.102337,561.952393 
	C50.102337,583.024902 50.102337,603.911377 50.102337,624.860535 
	C248.215424,624.860535 446.047699,624.860535 643.816528,624.860535 
	C643.816528,603.652588 643.816528,582.769104 643.816528,561.663025 
	C619.801331,561.663025 596.150818,561.663025 571.500183,561.663025 
M237.500076,30.824371 
	C199.557281,30.824371 161.614487,30.824371 123.542679,30.824371 
	C123.542679,54.436077 123.542679,77.492859 123.542679,100.550171 
	C272.738861,100.550171 421.601410,100.550171 570.554626,100.550171 
	C570.554626,77.216637 570.554626,54.284397 570.554626,30.824369 
	C459.713531,30.824369 349.106812,30.824369 237.500076,30.824371 
M428.559631,580.485474 
	C428.559631,574.375488 428.559631,568.265503 428.559631,561.939697 
	C374.009064,561.939697 319.972961,561.939697 265.812744,561.939697 
	C265.812744,570.066650 265.812744,577.926392 265.812744,585.784180 
	C320.199310,585.784180 374.237457,585.784180 428.556732,585.784180 
	C428.556732,584.131348 428.556732,582.809021 428.559631,580.485474 
z"/>
<path fill="none" opacity="1.000000" stroke="none" 
	d="
M346.999847,455.695068 
	C272.233765,455.695038 197.967712,455.695038 123.446991,455.695038 
	C123.446991,342.211334 123.446991,229.309692 123.446991,116.042229 
	C272.419159,116.042229 421.297577,116.042229 570.497009,116.042229 
	C570.497009,229.025421 570.497009,342.060181 570.497009,455.695068 
	C496.031311,455.695068 421.765594,455.695068 346.999847,455.695068 
M397.050018,319.671600 
	C397.648010,320.225800 398.246002,320.780029 398.843994,321.334259 
	C399.227020,320.529785 399.610016,319.725281 400.749573,318.585083 
	C401.292419,318.490845 401.835236,318.396637 403.244904,318.483337 
	C448.075928,318.489899 492.906952,318.513489 537.737976,318.487030 
	C545.660645,318.482361 547.791504,316.251984 547.800110,308.334259 
	C547.815430,294.334320 547.810425,280.334412 547.804504,266.334473 
	C547.801025,258.110046 545.701294,256.017151 537.456665,256.016541 
	C506.956818,256.014313 476.457001,256.017303 445.957153,256.018829 
	C416.957306,256.020264 387.957458,256.001984 358.957672,256.039703 
	C352.412476,256.048187 349.939240,258.576965 349.924896,265.133392 
	C349.892426,279.966553 349.884735,294.799957 349.933441,309.633057 
	C349.953369,315.699860 352.384094,318.379730 358.260956,318.442200 
	C367.588043,318.541351 376.918060,318.369019 386.797272,318.663147 
	C387.872498,318.806549 388.947754,318.949921 390.095612,319.678436 
	C390.728943,319.458710 391.362244,319.238983 392.821350,318.880005 
	C394.212891,318.932404 395.604431,318.984802 397.050018,319.671600 
M382.203796,342.550659 
	C382.120728,342.099030 382.037659,341.647430 381.954590,341.195831 
	C381.499939,341.441803 380.637695,341.741425 380.661774,341.924377 
	C380.761536,342.682068 381.129303,343.404419 380.900879,344.773407 
	C380.618958,346.517181 380.337036,348.260986 379.845886,350.742401 
	C380.820190,355.039642 383.906525,356.531921 387.886322,356.535492 
	C428.541687,356.571838 469.197052,356.563995 509.852448,356.579163 
	C513.531799,356.580536 516.523560,355.369141 517.568909,351.580475 
	C518.591187,347.875610 517.825256,344.631317 513.924988,342.178345 
	C513.268311,342.164886 512.611633,342.151398 511.032318,341.999329 
	C507.541382,341.989777 504.050110,341.944855 500.559570,341.976898 
	C486.955292,342.101776 473.351257,342.251068 459.748169,342.458344 
	C459.748169,342.458344 459.674744,342.230652 458.825714,341.992706 
	C455.553131,341.907715 452.280518,341.822723 449.118469,341.080994 
	C449.755768,340.352692 450.468964,339.676758 451.015320,338.885681 
	C452.333588,336.976898 455.074799,334.154480 454.551849,333.241577 
	C453.216064,330.909668 450.680359,328.737946 448.138184,327.734283 
	C442.893188,325.663544 437.129517,330.448608 435.006805,338.775208 
	C435.010834,339.534973 435.014862,340.294739 434.993805,341.388550 
	C434.993805,341.388550 434.992950,341.723511 434.261963,341.929504 
	C433.510223,341.869537 432.758453,341.809540 432.007141,340.906189 
	C432.004333,339.915070 432.019684,338.923523 431.995880,337.932892 
	C431.793701,329.517975 425.358948,325.453156 417.861084,328.963928 
	C417.372986,329.192474 416.685181,329.185211 416.137543,329.067566 
	C405.474701,326.777130 408.417877,327.580750 402.426361,335.548615 
	C402.282928,337.704712 402.139496,339.860779 401.244812,341.978912 
	C400.501587,341.904480 399.758362,341.830048 399.017914,340.881042 
	C398.678619,337.583710 398.339294,334.286346 397.720337,330.345184 
	C397.829620,328.723328 397.938934,327.101440 398.058350,325.329681 
	C396.354156,325.329681 394.469086,325.329681 391.790894,325.329681 
	C391.515930,330.994690 391.254761,336.374786 390.208374,341.946899 
	C389.146881,342.063782 388.085419,342.180634 386.216064,342.078400 
	C384.907959,342.469788 383.599884,342.861206 382.203796,342.550659 
M346.719513,347.123230 
	C350.170837,351.883240 352.383636,352.673035 357.009003,348.996155 
	C359.388092,347.104980 360.953491,343.560364 361.733765,340.471680 
	C362.459259,337.599762 362.212067,334.873260 366.208008,334.626801 
	C366.846161,334.587433 367.758514,332.949127 367.891510,331.962067 
	C368.215698,329.555878 368.106720,327.050446 364.687225,327.046387 
	C361.391174,327.042450 357.735382,326.659607 357.033844,331.309814 
	C356.497803,334.862915 356.092957,338.435852 355.629730,342.000000 
	C355.492462,342.001862 355.355164,342.003723 355.217865,342.005585 
	C355.069244,339.371368 354.920654,336.737152 354.772034,334.102936 
	C354.481232,334.113922 354.190430,334.124878 353.899628,334.135864 
	C353.899628,336.886108 353.899628,339.636353 353.899628,342.285950 
	C350.963226,343.295685 348.479797,344.149689 345.997803,344.206787 
	C346.269684,342.438232 346.541565,340.669678 346.899567,338.340973 
	C343.144196,336.071472 339.281860,333.737305 335.640503,331.536713 
	C336.564026,337.082825 337.153473,341.648376 338.189362,346.110321 
	C338.443176,347.203705 340.144562,348.681152 341.202148,348.699005 
	C342.790161,348.725891 344.397308,347.620361 346.719513,347.123230 
M324.950104,340.177704 
	C323.709381,337.681213 322.468658,335.184753 321.227966,332.688293 
	C321.505249,332.458252 321.782562,332.228241 322.059875,331.998230 
	C324.452576,333.207764 326.845306,334.417267 328.489471,335.248383 
	C330.074860,333.419189 331.396515,331.894318 332.686890,330.405548 
	C325.138855,326.703522 321.215424,325.375488 317.153046,333.219940 
	C294.647247,310.728912 272.143097,288.236237 249.634567,265.747955 
	C243.648849,259.767609 240.121933,259.758942 234.077866,265.775330 
	C228.412460,271.414795 222.794113,277.101562 217.157043,282.769470 
	C198.362518,301.666901 179.590912,320.587250 160.751740,339.440063 
	C157.839966,342.353912 155.212372,345.754730 157.868500,349.433167 
	C159.479156,351.663727 163.217285,353.351685 166.089752,353.496582 
	C175.837173,353.988190 185.624710,353.684326 195.800095,353.684326 
	C195.800095,355.885010 195.800293,357.520691 195.800064,359.156372 
	C195.797119,379.816589 195.786652,400.476776 195.794724,421.136993 
	C195.798004,429.512543 197.728683,431.475128 206.048203,431.481415 
	C230.040695,431.499512 254.033218,431.498627 278.025726,431.483521 
	C285.958740,431.478516 288.114807,429.325043 288.122101,421.399719 
	C288.141083,400.739502 288.131134,380.079285 288.132690,359.419067 
	C288.132812,357.640472 288.132721,355.861877 288.132721,353.693634 
	C298.344269,353.693634 307.980865,353.596863 317.614166,353.733582 
	C322.585022,353.804138 325.980011,352.016388 327.915680,346.887390 
	C327.623291,345.924255 327.330902,344.961121 326.631836,343.526550 
	C326.101135,342.643982 325.570435,341.761414 324.950104,340.177704 
M208.500244,220.529922 
	C203.670700,220.529922 198.841141,220.527496 194.011597,220.530426 
	C184.186157,220.536377 174.360596,220.518204 164.535370,220.567505 
	C161.082199,220.584839 157.855225,221.821777 157.402802,225.460831 
	C157.091614,227.963943 157.717545,231.387192 159.317856,233.089188 
	C160.798096,234.663467 164.130585,235.014771 166.648743,235.018646 
	C229.266174,235.115280 291.883789,235.094757 354.501373,235.090012 
	C355.832550,235.089905 357.183472,235.166077 358.491211,234.974533 
	C362.430603,234.397552 364.269135,231.781403 364.342163,228.055191 
	C364.414551,224.363113 362.791473,221.539337 358.856689,220.842102 
	C356.909790,220.497116 354.880127,220.541962 352.887878,220.541351 
	C305.092010,220.526749 257.296143,220.529938 208.500244,220.529922 
M332.500031,182.882034 
	C277.708679,182.875961 222.917343,182.868591 168.125992,182.869431 
	C166.295746,182.869461 164.432678,182.749695 162.642136,183.039413 
	C159.023132,183.624969 157.125275,186.023315 156.943771,189.584641 
	C156.755066,193.287552 158.188995,196.185669 162.097763,197.034241 
	C164.021988,197.451996 166.063370,197.435120 168.051849,197.436386 
	C205.689682,197.460419 243.327515,197.460144 280.965363,197.459763 
	C305.946228,197.459503 330.927185,197.480103 355.907928,197.424179 
	C361.489899,197.411682 364.278473,194.980133 364.366913,190.464035 
	C364.461823,185.618668 361.548584,182.922363 355.982727,182.883560 
	C348.488861,182.831314 340.994324,182.877884 332.500031,182.882034 
M465.499725,431.455261 
	C489.485382,431.455231 513.471069,431.458344 537.456726,431.447876 
	C538.951355,431.447205 540.488586,431.544464 541.932251,431.242889 
	C545.675110,430.460907 547.804993,428.034912 547.697021,424.199554 
	C547.586121,420.264648 545.551697,417.612244 541.472656,416.966919 
	C540.332825,416.786591 539.145508,416.890686 537.979980,416.890656 
	C478.682068,416.889465 419.384155,416.890625 360.086243,416.895416 
	C358.754272,416.895508 357.393005,416.770508 356.095856,416.995148 
	C352.281860,417.655640 350.244904,420.150421 350.127502,423.888763 
	C350.010834,427.602722 351.767853,430.338654 355.594513,431.169067 
	C357.195526,431.516510 358.902802,431.444122 360.561798,431.444794 
	C395.207764,431.458466 429.853729,431.455231 465.499725,431.455261 
M431.499908,394.214874 
	C466.651672,394.214874 501.803436,394.215637 536.955200,394.212372 
	C538.453674,394.212250 539.980286,394.352539 541.445190,394.120758 
	C545.186340,393.528870 547.480530,391.324402 547.693115,387.467712 
	C547.915161,383.438690 545.880066,380.786591 542.008911,379.766876 
	C540.595764,379.394623 539.035156,379.522736 537.541870,379.522491 
	C478.566895,379.512482 419.591888,379.513092 360.616913,379.519379 
	C359.120026,379.519531 357.581329,379.389771 356.134308,379.680206 
	C352.160492,380.477783 350.001282,383.079376 350.140533,387.089478 
	C350.278046,391.049530 352.445526,393.609131 356.536377,394.119415 
	C358.014984,394.303864 359.530609,394.211548 361.029327,394.211823 
	C384.186188,394.216125 407.343018,394.214874 431.499908,394.214874 
M226.500031,145.120789 
	C207.005234,145.120956 187.510437,145.120621 168.015640,145.122345 
	C166.682724,145.122467 165.343903,145.060242 164.017944,145.160538 
	C159.526871,145.500275 156.868835,148.281189 156.897324,152.528778 
	C156.926010,156.805420 159.521149,159.466858 164.099854,159.830658 
	C165.425217,159.935959 166.764343,159.877350 168.097168,159.877472 
	C209.086212,159.881393 250.075256,159.884338 291.064301,159.881180 
	C292.562653,159.881073 294.100189,160.022858 295.551849,159.745178 
	C299.503784,158.989304 301.710754,156.504364 301.693298,152.447311 
	C301.675812,148.382523 299.431580,145.942642 295.473785,145.210190 
	C294.182251,144.971161 292.815369,145.123520 291.482941,145.123306 
	C270.155304,145.119934 248.827667,145.120850 226.500031,145.120789 
M517.181274,216.687836 
	C526.075378,209.432587 534.988770,202.200775 543.855957,194.912827 
	C548.762634,190.880035 549.484558,186.336975 545.198669,182.700851 
	C532.774597,172.160370 520.123779,161.886002 507.505280,151.576614 
	C504.245300,148.913177 500.992584,149.584869 498.097839,152.338882 
	C494.624939,155.642975 495.068542,160.388687 499.338287,163.921875 
	C508.915771,171.847183 518.580933,179.666565 528.574951,187.826767 
	C527.025452,189.181808 525.839539,190.271133 524.599548,191.294861 
	C516.008057,198.387848 507.353760,205.405884 498.831360,212.580719 
	C495.355316,215.507156 494.932465,219.983643 497.451324,223.219360 
	C500.038513,226.542755 504.140320,226.905334 508.046906,223.981018 
	C510.974884,221.789230 513.760132,219.406784 517.181274,216.687836 
M418.977203,195.522964 
	C416.103241,193.077744 413.229248,190.632538 410.017090,187.899582 
	C420.097412,179.636276 429.756073,171.784073 439.335571,163.836441 
	C443.699249,160.216110 444.234161,156.797226 441.295288,153.152679 
	C438.166809,149.273117 434.490936,148.987579 430.009949,152.647873 
	C418.277832,162.231186 406.597839,171.879471 394.980408,181.601440 
	C389.701263,186.019257 389.734131,190.487274 395.050690,194.849091 
	C406.764282,204.459091 418.537659,213.996918 430.347748,223.488129 
	C434.605652,226.910034 438.513885,226.758148 441.322754,223.356461 
	C444.230560,219.834976 443.679901,216.149521 439.485474,212.595871 
	C432.880432,206.999908 426.184326,201.511429 418.977203,195.522964 
M469.126984,217.643692 
	C474.657196,196.944672 480.191498,176.246750 485.714783,155.545868 
	C487.100250,150.353302 485.161163,146.551483 480.570984,145.381943 
	C476.567413,144.361877 473.337463,146.590942 471.830719,151.445633 
	C471.486420,152.554901 471.234467,153.692642 470.930847,154.814804 
	C467.070221,169.083679 463.179352,183.344467 459.356903,197.623581 
	C457.165039,205.811310 454.897797,213.986572 453.028656,222.249832 
	C452.053314,226.561859 454.627747,230.255600 458.560547,230.872208 
	C462.739746,231.527481 465.686157,229.839081 466.914978,225.624817 
	C467.611847,223.234726 468.276550,220.835266 469.126984,217.643692 
M372.999573,340.026855 
	C372.999573,337.408386 372.999573,334.789886 372.999573,332.171417 
	C372.781860,332.184052 372.564117,332.196686 372.346405,332.209290 
	C372.346405,335.723450 372.346405,339.237579 372.346405,342.751709 
	C372.520508,342.748932 372.694580,342.746124 372.868683,342.743317 
	C372.911865,342.107788 372.955078,341.472260 372.999573,340.026855 
M333.997559,345.077698 
	C334.048126,346.026184 334.098724,346.974670 334.149292,347.923187 
	C334.339172,347.918365 334.529022,347.913574 334.718903,347.908752 
	C334.718903,344.617218 334.718903,341.325714 334.718903,338.034180 
	C334.478455,338.030609 334.238007,338.027039 333.997559,338.023468 
	C333.997559,340.098206 333.997559,342.172913 333.997559,345.077698 
M374.989960,339.731934 
	C374.989960,337.387329 374.989960,335.042694 374.989960,332.698090 
	C374.574890,332.742645 374.159790,332.787231 373.744720,332.831818 
	C374.140747,335.365234 374.536743,337.898682 374.989960,339.731934 
M376.893951,339.558136 
	C376.893951,338.039154 376.893951,336.520172 376.893951,335.001160 
	C376.588593,335.015289 376.283234,335.029419 375.977844,335.043549 
	C376.133667,336.701385 376.289490,338.359192 376.893951,339.558136 
M332.606445,336.797821 
	C332.212982,336.793610 331.819489,336.789368 331.426025,336.785156 
	C331.424530,336.948517 331.412018,337.253845 331.423065,337.254700 
	C331.814575,337.284973 332.208313,337.286682 332.606445,336.797821 
M330.123810,346.786255 
	C330.235138,346.899872 330.331299,347.072205 330.463196,347.106354 
	C330.550110,347.128876 330.784210,346.956879 330.788422,346.864471 
	C330.817596,346.223083 330.803833,345.579712 330.803833,344.936981 
	C330.631531,344.934204 330.459198,344.931458 330.286896,344.928711 
	C330.202972,345.371979 330.119049,345.815216 330.123810,346.786255 
M377.185303,350.263519 
	C377.027222,350.377228 376.869110,350.490936 376.710999,350.604645 
	C376.931519,350.581879 377.152069,350.559082 377.185303,350.263519 
M331.177216,350.752960 
	C331.121918,350.586670 331.066589,350.420380 331.011261,350.254089 
	C330.957367,350.421448 330.903442,350.588806 331.177216,350.752960 
M372.622498,322.474609 
	C372.838470,322.529572 373.054443,322.584503 373.270416,322.639465 
	C373.131775,322.504364 372.993134,322.369293 372.622498,322.474609 
M341.412964,351.482025 
	C341.412964,351.482025 341.523590,351.416534 341.412964,351.482025 
M385.410126,337.482910 
	C385.410126,337.482910 385.520721,337.417358 385.410126,337.482910 
M343.481750,331.591949 
	C343.481750,331.591949 343.412994,331.477600 343.481750,331.591949 
M372.413116,325.485107 
	C372.413116,325.485107 372.523865,325.419373 372.413116,325.485107 
z"/>
<path fill="none" opacity="1.000000" stroke="none" 
	d="
M585.488647,253.999756 
	C585.488647,234.837357 585.488647,216.174957 585.488647,197.151001 
	C594.375610,197.151001 603.095093,197.151001 612.106812,197.151001 
	C612.106812,313.404907 612.106812,429.649780 612.106812,546.294006 
	C435.502625,546.294006 258.955750,546.294006 81.999680,546.294006 
	C81.999680,429.983704 81.999680,313.632172 81.999680,197.031952 
	C90.637009,197.031952 99.229332,197.031952 108.472816,197.031952 
	C108.472816,198.886002 108.472862,200.640411 108.472809,202.394806 
	C108.470512,287.560730 108.467163,372.726685 108.472755,457.892609 
	C108.472870,459.723663 108.431313,461.572845 108.659294,463.382080 
	C109.192986,467.617401 111.654411,470.008392 115.958244,470.114441 
	C120.955276,470.237579 125.957367,470.161621 130.957260,470.161591 
	C278.455994,470.160767 425.954742,470.158905 573.453491,470.156067 
	C584.069519,470.155853 585.485535,468.717804 585.485535,457.996521 
	C585.485901,390.164276 585.487549,322.332001 585.488647,253.999756 
z"/>
<path fill="none" opacity="1.000000" stroke="none" 
	d="
M572.000244,561.663025 
	C596.150818,561.663025 619.801331,561.663025 643.816528,561.663025 
	C643.816528,582.769104 643.816528,603.652588 643.816528,624.860535 
	C446.047699,624.860535 248.215424,624.860535 50.102337,624.860535 
	C50.102337,603.911377 50.102337,583.024902 50.102337,561.952393 
	C116.991531,561.952393 183.698776,561.952393 250.836411,561.952393 
	C250.836411,571.680298 250.827881,581.140442 250.839050,590.600586 
	C250.848297,598.431030 253.170380,600.845276 260.826508,600.846680 
	C318.309601,600.857056 375.792694,600.854126 433.275787,600.842224 
	C440.680389,600.840698 443.133392,598.373352 443.144745,590.999756 
	C443.159546,581.378784 443.148346,571.757751 443.148346,561.663025 
	C486.272888,561.663025 528.886536,561.663025 572.000244,561.663025 
z"/>
<path fill="none" opacity="1.000000" stroke="none" 
	d="
M238.000092,30.824371 
	C349.106812,30.824369 459.713531,30.824369 570.554626,30.824369 
	C570.554626,54.284397 570.554626,77.216637 570.554626,100.550171 
	C421.601410,100.550171 272.738861,100.550171 123.542679,100.550171 
	C123.542679,77.492859 123.542679,54.436077 123.542679,30.824371 
	C161.614487,30.824371 199.557281,30.824371 238.000092,30.824371 
M142.671875,70.614594 
	C146.722885,85.711678 160.619980,94.019829 174.607239,89.706635 
	C188.153015,85.529572 194.909027,70.916084 189.910034,56.606155 
	C185.904633,45.140450 174.002014,38.718845 161.915817,41.502956 
	C148.570602,44.577087 140.931183,55.724869 142.671875,70.614594 
M218.870209,80.564629 
	C227.773132,91.046310 239.690994,93.638329 250.931747,87.537682 
	C260.915894,82.119026 266.000946,69.537354 262.492950,58.377022 
	C259.333344,48.325119 252.109955,42.514011 241.920898,41.179825 
	C231.892670,39.866695 223.521866,43.732681 218.002594,52.348427 
	C212.137482,61.504013 212.533539,70.860123 218.870209,80.564629 
z"/>
<path fill="none" opacity="1.000000" stroke="none" 
	d="
M428.558167,580.986084 
	C428.556732,582.809021 428.556732,584.131348 428.556732,585.784180 
	C374.237457,585.784180 320.199310,585.784180 265.812744,585.784180 
	C265.812744,577.926392 265.812744,570.066650 265.812744,561.939697 
	C319.972961,561.939697 374.009064,561.939697 428.559631,561.939697 
	C428.559631,568.265503 428.559631,574.375488 428.558167,580.986084 
z"/>
<path fill="#D9083C" opacity="1.000000" stroke="none" 
	d="
M327.286743,347.013702 
	C325.980011,352.016388 322.585022,353.804138 317.614166,353.733582 
	C307.980865,353.596863 298.344269,353.693634 288.132721,353.693634 
	C288.132721,355.861877 288.132812,357.640472 288.132690,359.419067 
	C288.131134,380.079285 288.141083,400.739502 288.122101,421.399719 
	C288.114807,429.325043 285.958740,431.478516 278.025726,431.483521 
	C254.033218,431.498627 230.040695,431.499512 206.048203,431.481415 
	C197.728683,431.475128 195.798004,429.512543 195.794724,421.136993 
	C195.786652,400.476776 195.797119,379.816589 195.800064,359.156372 
	C195.800293,357.520691 195.800095,355.885010 195.800095,353.684326 
	C185.624710,353.684326 175.837173,353.988190 166.089752,353.496582 
	C163.217285,353.351685 159.479156,351.663727 157.868500,349.433167 
	C155.212372,345.754730 157.839966,342.353912 160.751740,339.440063 
	C179.590912,320.587250 198.362518,301.666901 217.157043,282.769470 
	C222.794113,277.101562 228.412460,271.414795 234.077866,265.775330 
	C240.121933,259.758942 243.648849,259.767609 249.634567,265.747955 
	C272.143097,288.236237 294.647247,310.728912 317.487915,333.633057 
	C318.056213,334.291809 318.197388,334.582245 317.887756,335.157715 
	C317.165833,340.349854 315.561859,345.510742 318.640991,349.816193 
	C319.255768,345.251251 319.828644,340.997467 320.676971,336.959900 
	C322.314880,338.410370 323.677307,339.644592 325.039734,340.878845 
	C325.570435,341.761414 326.101135,342.643982 326.790222,344.141663 
	C327.061340,345.509094 327.174042,346.261383 327.286743,347.013702 
M297.998199,342.999939 
	C297.998199,342.999939 298.019257,343.021729 298.006409,342.252991 
	C298.018127,341.229828 298.029846,340.206635 298.750214,339.013031 
	C303.586823,337.580872 297.922028,336.422333 299.388977,335.024445 
	C301.260681,335.014954 303.132355,335.005493 305.124908,335.821381 
	C305.433289,338.912262 305.551208,342.038635 306.117615,345.081482 
	C306.489746,347.080933 307.509125,348.959900 308.357941,351.208771 
	C313.293030,347.175751 313.190063,336.958099 308.817566,331.520203 
	C308.610840,331.245361 308.339539,331.070984 307.676086,330.350128 
	C302.649353,326.972717 298.755432,327.283112 294.248535,331.130310 
	C276.773499,313.831421 259.298492,296.532532 241.193665,278.610199 
	C221.764847,298.290680 202.701965,317.600464 182.926041,337.086731 
	C183.286789,338.030121 183.658203,339.799225 184.006729,339.794708 
	C190.665009,339.708710 197.320587,339.414001 204.646378,339.156036 
	C206.141068,340.369843 207.635742,341.583618 209.032867,343.756317 
	C209.078049,366.692413 209.152618,389.628571 209.134537,412.564606 
	C209.132019,415.750610 209.377441,417.976105 213.560165,417.943390 
	C232.506943,417.795135 251.455795,417.915192 270.402771,417.779938 
	C271.524597,417.771942 272.636505,416.377625 273.627899,414.745728 
	C273.674194,393.177673 273.720490,371.609619 274.630585,349.944794 
	C278.202942,350.232086 281.793915,350.837372 285.337402,350.630402 
	C286.541718,350.560059 287.626465,348.442383 288.765839,347.260223 
	C287.640350,346.228333 286.642700,344.559814 285.361694,344.302643 
	C282.998566,343.828278 280.469147,344.182129 277.330475,344.035645 
	C276.875793,343.943573 276.421112,343.851501 275.992310,343.142059 
	C275.997253,342.524231 276.002197,341.906433 276.327332,340.748932 
	C276.516235,340.659088 276.705139,340.569244 277.138641,341.167908 
	C278.779785,340.544983 280.420898,339.922058 282.716949,339.083710 
	C283.845947,338.961731 284.974945,338.839752 286.817780,338.919983 
	C288.544006,339.041473 290.270264,339.162964 291.995728,339.823242 
	C291.987976,340.183380 291.980225,340.543518 292.064240,341.649139 
	C293.620850,344.037323 294.736237,347.014008 296.878967,348.620361 
	C298.483948,349.823547 301.412048,349.368256 303.750793,349.366364 
	C304.084503,349.366089 304.831635,347.082428 304.686951,346.993317 
	C302.860107,345.868591 300.904602,344.952850 298.999847,344.001404 
	C298.999847,344.001404 299.020508,344.015961 298.814819,343.544891 
	C298.536560,343.355164 298.258270,343.165436 297.998199,342.999939 
z"/>
<path fill="#D9083C" opacity="1.000000" stroke="none" 
	d="
M386.246826,318.311523 
	C376.918060,318.369019 367.588043,318.541351 358.260956,318.442200 
	C352.384094,318.379730 349.953369,315.699860 349.933441,309.633057 
	C349.884735,294.799957 349.892426,279.966553 349.924896,265.133392 
	C349.939240,258.576965 352.412476,256.048187 358.957672,256.039703 
	C387.957458,256.001984 416.957306,256.020264 445.957153,256.018829 
	C476.457001,256.017303 506.956818,256.014313 537.456665,256.016541 
	C545.701294,256.017151 547.801025,258.110046 547.804504,266.334473 
	C547.810425,280.334412 547.815430,294.334320 547.800110,308.334259 
	C547.791504,316.251984 545.660645,318.482361 537.737976,318.487030 
	C492.906952,318.513489 448.075928,318.489899 402.964661,318.344849 
	C402.684448,318.206360 402.816711,317.913818 403.035736,317.856110 
	C403.540985,317.422760 403.827179,317.047119 404.341736,316.469482 
	C403.702606,314.501312 402.835175,312.735138 401.980042,310.984955 
	C401.992340,311.000916 402.021423,311.029449 401.924072,310.692810 
	C399.047729,306.580536 395.724976,306.759186 391.869110,308.671997 
	C387.768768,310.706146 386.495789,314.152863 386.246826,318.311523 
M455.500244,270.565613 
	C425.271393,270.565613 395.042542,270.565613 364.950012,270.565613 
	C364.950012,282.096008 364.950012,292.828949 364.950012,303.494690 
	C421.169525,303.494690 477.016846,303.494690 532.746826,303.494690 
	C532.746826,292.330597 532.746826,281.571136 532.746826,270.565613 
	C507.118500,270.565613 481.809418,270.565613 455.500244,270.565613 
z"/>
<path fill="#D9083C" opacity="1.000000" stroke="none" 
	d="
M209.000259,220.529907 
	C257.296143,220.529938 305.092010,220.526749 352.887878,220.541351 
	C354.880127,220.541962 356.909790,220.497116 358.856689,220.842102 
	C362.791473,221.539337 364.414551,224.363113 364.342163,228.055191 
	C364.269135,231.781403 362.430603,234.397552 358.491211,234.974533 
	C357.183472,235.166077 355.832550,235.089905 354.501373,235.090012 
	C291.883789,235.094757 229.266174,235.115280 166.648743,235.018646 
	C164.130585,235.014771 160.798096,234.663467 159.317856,233.089188 
	C157.717545,231.387192 157.091614,227.963943 157.402802,225.460831 
	C157.855225,221.821777 161.082199,220.584839 164.535370,220.567505 
	C174.360596,220.518204 184.186157,220.536377 194.011597,220.530426 
	C198.841141,220.527496 203.670700,220.529922 209.000259,220.529907 
z"/>
<path fill="#D9083C" opacity="1.000000" stroke="none" 
	d="
M333.000061,182.882034 
	C340.994324,182.877884 348.488861,182.831314 355.982727,182.883560 
	C361.548584,182.922363 364.461823,185.618668 364.366913,190.464035 
	C364.278473,194.980133 361.489899,197.411682 355.907928,197.424179 
	C330.927185,197.480103 305.946228,197.459503 280.965363,197.459763 
	C243.327515,197.460144 205.689682,197.460419 168.051849,197.436386 
	C166.063370,197.435120 164.021988,197.451996 162.097763,197.034241 
	C158.188995,196.185669 156.755066,193.287552 156.943771,189.584641 
	C157.125275,186.023315 159.023132,183.624969 162.642136,183.039413 
	C164.432678,182.749695 166.295746,182.869461 168.125992,182.869431 
	C222.917343,182.868591 277.708679,182.875961 333.000061,182.882034 
z"/>
<path fill="#D9083C" opacity="1.000000" stroke="none" 
	d="
M464.999695,431.455292 
	C429.853729,431.455231 395.207764,431.458466 360.561798,431.444794 
	C358.902802,431.444122 357.195526,431.516510 355.594513,431.169067 
	C351.767853,430.338654 350.010834,427.602722 350.127502,423.888763 
	C350.244904,420.150421 352.281860,417.655640 356.095856,416.995148 
	C357.393005,416.770508 358.754272,416.895508 360.086243,416.895416 
	C419.384155,416.890625 478.682068,416.889465 537.979980,416.890656 
	C539.145508,416.890686 540.332825,416.786591 541.472656,416.966919 
	C545.551697,417.612244 547.586121,420.264648 547.697021,424.199554 
	C547.804993,428.034912 545.675110,430.460907 541.932251,431.242889 
	C540.488586,431.544464 538.951355,431.447205 537.456726,431.447876 
	C513.471069,431.458344 489.485382,431.455231 464.999695,431.455292 
z"/>
<path fill="#D9083C" opacity="1.000000" stroke="none" 
	d="
M430.999878,394.214874 
	C407.343018,394.214874 384.186188,394.216125 361.029327,394.211823 
	C359.530609,394.211548 358.014984,394.303864 356.536377,394.119415 
	C352.445526,393.609131 350.278046,391.049530 350.140533,387.089478 
	C350.001282,383.079376 352.160492,380.477783 356.134308,379.680206 
	C357.581329,379.389771 359.120026,379.519531 360.616913,379.519379 
	C419.591888,379.513092 478.566895,379.512482 537.541870,379.522491 
	C539.035156,379.522736 540.595764,379.394623 542.008911,379.766876 
	C545.880066,380.786591 547.915161,383.438690 547.693115,387.467712 
	C547.480530,391.324402 545.186340,393.528870 541.445190,394.120758 
	C539.980286,394.352539 538.453674,394.212250 536.955200,394.212372 
	C501.803436,394.215637 466.651672,394.214874 430.999878,394.214874 
z"/>
<path fill="#D9083C" opacity="1.000000" stroke="none" 
	d="
M227.000031,145.120789 
	C248.827667,145.120850 270.155304,145.119934 291.482941,145.123306 
	C292.815369,145.123520 294.182251,144.971161 295.473785,145.210190 
	C299.431580,145.942642 301.675812,148.382523 301.693298,152.447311 
	C301.710754,156.504364 299.503784,158.989304 295.551849,159.745178 
	C294.100189,160.022858 292.562653,159.881073 291.064301,159.881180 
	C250.075256,159.884338 209.086212,159.881393 168.097168,159.877472 
	C166.764343,159.877350 165.425217,159.935959 164.099854,159.830658 
	C159.521149,159.466858 156.926010,156.805420 156.897324,152.528778 
	C156.868835,148.281189 159.526871,145.500275 164.017944,145.160538 
	C165.343903,145.060242 166.682724,145.122467 168.015640,145.122345 
	C187.510437,145.120621 207.005234,145.120956 227.000031,145.120789 
z"/>
<path fill="#D9083C" opacity="1.000000" stroke="none" 
	d="
M449.007935,341.737732 
	C452.280518,341.822723 455.553131,341.907715 459.000488,342.458374 
	C458.785065,343.950348 458.394897,344.976685 457.767334,346.169617 
	C457.437408,346.927399 457.344940,347.518555 457.252472,348.109680 
	C457.457031,348.131805 457.661621,348.153931 457.866211,348.176056 
	C457.909058,347.448944 457.951874,346.721832 458.270508,346.182007 
	C459.668579,346.839233 460.790833,347.309204 461.913086,347.779205 
	C462.136444,347.402954 462.359833,347.026733 462.583191,346.650482 
	C461.637848,345.230743 460.692474,343.811005 459.747131,342.391266 
	C473.351257,342.251068 486.955292,342.101776 500.559570,341.976898 
	C504.050110,341.944855 507.541382,341.989777 511.614197,342.362366 
	C512.802612,342.731110 513.409119,342.736816 514.015625,342.742554 
	C517.825256,344.631317 518.591187,347.875610 517.568909,351.580475 
	C516.523560,355.369141 513.531799,356.580536 509.852448,356.579163 
	C469.197052,356.563995 428.541687,356.571838 387.886322,356.535492 
	C383.906525,356.531921 380.820190,355.039642 380.303955,350.340881 
	C384.300842,348.581482 387.353973,346.825623 387.023926,342.297485 
	C388.085419,342.180634 389.146881,342.063782 390.923035,341.955750 
	C392.078857,342.052917 392.519989,342.141205 392.952728,342.657227 
	C393.622986,345.366852 394.316589,349.618347 394.977936,349.613312 
	C399.528900,349.578857 397.431732,345.645569 398.010986,343.214844 
	C398.086426,342.898254 398.033600,342.551086 398.281921,342.098267 
	C398.687500,341.904175 398.851318,341.829895 399.015137,341.755615 
	C399.758362,341.830048 400.501587,341.904480 401.752075,342.326233 
	C405.156006,344.963623 407.444489,342.193970 410.469788,341.828186 
	C415.616364,341.950043 420.304626,341.985413 425.132629,342.370056 
	C426.850922,342.489594 428.429474,342.259796 430.345581,342.004578 
	C431.124298,341.902588 431.565491,341.826080 432.006714,341.749573 
	C432.758453,341.809540 433.510223,341.869537 435.034180,341.925415 
	C437.200562,341.958801 438.594696,341.996307 440.082520,342.329498 
	C440.772552,342.714233 441.368927,342.803345 442.109467,343.141052 
	C442.840027,342.981720 443.426392,342.573792 444.425171,342.087219 
	C446.227692,341.918335 447.617798,341.828033 449.007935,341.737732 
M428.175964,350.748383 
	C428.120514,350.583954 428.065063,350.419525 428.009613,350.255096 
	C427.955627,350.420471 427.901611,350.585815 428.175964,350.748383 
z"/>
<path fill="#D9083C" opacity="1.000000" stroke="none" 
	d="
M516.895142,216.898529 
	C513.760132,219.406784 510.974884,221.789230 508.046906,223.981018 
	C504.140320,226.905334 500.038513,226.542755 497.451324,223.219360 
	C494.932465,219.983643 495.355316,215.507156 498.831360,212.580719 
	C507.353760,205.405884 516.008057,198.387848 524.599548,191.294861 
	C525.839539,190.271133 527.025452,189.181808 528.574951,187.826767 
	C518.580933,179.666565 508.915771,171.847183 499.338287,163.921875 
	C495.068542,160.388687 494.624939,155.642975 498.097839,152.338882 
	C500.992584,149.584869 504.245300,148.913177 507.505280,151.576614 
	C520.123779,161.886002 532.774597,172.160370 545.198669,182.700851 
	C549.484558,186.336975 548.762634,190.880035 543.855957,194.912827 
	C534.988770,202.200775 526.075378,209.432587 516.895142,216.898529 
z"/>
<path fill="#D9083C" opacity="1.000000" stroke="none" 
	d="
M419.251953,195.750198 
	C426.184326,201.511429 432.880432,206.999908 439.485474,212.595871 
	C443.679901,216.149521 444.230560,219.834976 441.322754,223.356461 
	C438.513885,226.758148 434.605652,226.910034 430.347748,223.488129 
	C418.537659,213.996918 406.764282,204.459091 395.050690,194.849091 
	C389.734131,190.487274 389.701263,186.019257 394.980408,181.601440 
	C406.597839,171.879471 418.277832,162.231186 430.009949,152.647873 
	C434.490936,148.987579 438.166809,149.273117 441.295288,153.152679 
	C444.234161,156.797226 443.699249,160.216110 439.335571,163.836441 
	C429.756073,171.784073 420.097412,179.636276 410.017090,187.899582 
	C413.229248,190.632538 416.103241,193.077744 419.251953,195.750198 
z"/>
<path fill="#D9083C" opacity="1.000000" stroke="none" 
	d="
M469.041351,218.041840 
	C468.276550,220.835266 467.611847,223.234726 466.914978,225.624817 
	C465.686157,229.839081 462.739746,231.527481 458.560547,230.872208 
	C454.627747,230.255600 452.053314,226.561859 453.028656,222.249832 
	C454.897797,213.986572 457.165039,205.811310 459.356903,197.623581 
	C463.179352,183.344467 467.070221,169.083679 470.930847,154.814804 
	C471.234467,153.692642 471.486420,152.554901 471.830719,151.445633 
	C473.337463,146.590942 476.567413,144.361877 480.570984,145.381943 
	C485.161163,146.551483 487.100250,150.353302 485.714783,155.545868 
	C480.191498,176.246750 474.657196,196.944672 469.041351,218.041840 
z"/>
<path fill="none" opacity="1.000000" stroke="none" 
	d="
M424.992859,342.020752 
	C420.304626,341.985413 415.616364,341.950043 410.459290,341.491364 
	C409.547791,340.559387 408.975159,339.542175 408.681641,339.617218 
	C403.024200,341.062988 403.030945,341.089355 402.998779,335.010895 
	C408.417877,327.580750 405.474701,326.777130 416.137543,329.067566 
	C416.685181,329.185211 417.372986,329.192474 417.861084,328.963928 
	C425.358948,325.453156 431.793701,329.517975 431.995880,337.932892 
	C432.019684,338.923523 432.004333,339.915070 432.006927,341.327881 
	C431.565491,341.826080 431.124298,341.902588 430.348511,341.610382 
	C429.852966,339.934662 429.691925,338.627625 429.395294,336.219879 
	C427.422058,338.819916 426.207458,340.420349 424.992859,342.020752 
M418.997559,337.326172 
	C418.895905,336.547943 418.794250,335.769714 418.692627,334.991486 
	C418.416718,335.076416 418.140839,335.161346 417.864929,335.246277 
	C418.243683,336.164001 418.622467,337.081757 419.102478,338.626648 
	C419.759094,338.036346 420.415680,337.446014 421.072296,336.855713 
	C420.840515,336.592224 420.608734,336.328735 420.376923,336.065277 
	C419.917542,336.710571 419.458160,337.355896 418.997559,337.326172 
M425.186096,336.260254 
	C425.027527,336.375549 424.868927,336.490875 424.710327,336.606171 
	C424.931061,336.582703 425.151794,336.559265 425.186096,336.260254 
M416.590790,337.517303 
	C416.590790,337.517303 416.476044,337.587280 416.590790,337.517303 
z"/>
<path fill="none" opacity="1.000000" stroke="none" 
	d="
M345.996338,345.003662 
	C348.479797,344.149689 350.963226,343.295685 353.899628,342.285950 
	C353.899628,339.636353 353.899628,336.886108 353.899628,334.135864 
	C354.190430,334.124878 354.481232,334.113922 354.772034,334.102936 
	C354.920654,336.737152 355.069244,339.371368 355.217865,342.005585 
	C355.355164,342.003723 355.492462,342.001862 355.629730,342.000000 
	C356.092957,338.435852 356.497803,334.862915 357.033844,331.309814 
	C357.735382,326.659607 361.391174,327.042450 364.687225,327.046387 
	C368.106720,327.050446 368.215698,329.555878 367.891510,331.962067 
	C367.758514,332.949127 366.846161,334.587433 366.208008,334.626801 
	C362.212067,334.873260 362.459259,337.599762 361.733765,340.471680 
	C360.953491,343.560364 359.388092,347.104980 357.009003,348.996155 
	C352.383636,352.673035 350.170837,351.883240 346.357910,346.727692 
	C345.996338,345.889313 345.996338,345.446503 345.996338,345.003662 
z"/>
<path fill="none" opacity="1.000000" stroke="none" 
	d="
M439.988831,342.033844 
	C438.594696,341.996307 437.200562,341.958801 435.399689,341.822388 
	C434.992950,341.723511 434.993805,341.388550 435.247528,341.024078 
	C435.337799,339.778992 435.174347,338.898376 435.010925,338.017761 
	C437.129517,330.448608 442.893188,325.663544 448.138184,327.734283 
	C450.680359,328.737946 453.216064,330.909668 454.551849,333.241577 
	C455.074799,334.154480 452.333588,336.976898 451.015320,338.885681 
	C450.468964,339.676758 449.755768,340.352692 449.063202,341.409363 
	C447.617798,341.828033 446.227692,341.918335 444.099915,341.975769 
	C442.904907,341.953339 442.447571,341.963806 441.846375,341.742676 
	C441.131287,341.685333 440.560059,341.859589 439.988831,342.033844 
M449.584808,337.516785 
	C449.584808,337.516785 449.477295,337.580139 449.584808,337.516785 
M442.411377,339.483093 
	C442.411377,339.483093 442.522980,339.415649 442.411377,339.483093 
z"/>
<path fill="none" opacity="1.000000" stroke="none" 
	d="
M345.997070,344.605225 
	C345.996338,345.446503 345.996338,345.889313 345.996338,346.664246 
	C344.397308,347.620361 342.790161,348.725891 341.202148,348.699005 
	C340.144562,348.681152 338.443176,347.203705 338.189362,346.110321 
	C337.153473,341.648376 336.564026,337.082825 335.640503,331.536713 
	C339.281860,333.737305 343.144196,336.071472 346.899567,338.340973 
	C346.541565,340.669678 346.269684,342.438232 345.997070,344.605225 
z"/>
<path fill="none" opacity="1.000000" stroke="none" 
	d="
M324.994934,340.528259 
	C323.677307,339.644592 322.314880,338.410370 320.581421,336.672302 
	C319.555725,335.751465 318.901001,335.334503 318.246246,334.917542 
	C318.197388,334.582245 318.056213,334.291809 317.789368,333.803223 
	C321.215424,325.375488 325.138855,326.703522 332.686890,330.405548 
	C331.396515,331.894318 330.074860,333.419189 328.489471,335.248383 
	C326.845306,334.417267 324.452576,333.207764 322.059875,331.998230 
	C321.782562,332.228241 321.505249,332.458252 321.227966,332.688293 
	C322.468658,335.184753 323.709381,337.681213 324.994934,340.528259 
z"/>
<path fill="none" opacity="1.000000" stroke="none" 
	d="
M392.961121,342.229492 
	C392.519989,342.141205 392.078857,342.052917 391.315674,341.859741 
	C391.254761,336.374786 391.515930,330.994690 391.790894,325.329681 
	C394.469086,325.329681 396.354156,325.329681 398.058350,325.329681 
	C397.938934,327.101440 397.829620,328.723328 397.858246,331.070557 
	C397.874542,332.588257 397.909302,334.003601 397.607819,334.079254 
	C393.210297,335.183014 393.993347,338.626923 393.728790,341.847717 
	C393.299652,342.054413 393.130402,342.141937 392.961121,342.229492 
z"/>
<path fill="#D9083C" opacity="1.000000" stroke="none" 
	d="
M402.816711,317.913818 
	C402.816711,317.913818 402.684448,318.206360 402.531250,318.254395 
	C401.835236,318.396637 401.292419,318.490845 400.146210,318.654114 
	C399.542847,318.723114 399.075562,318.570099 399.049744,318.218567 
	C396.237732,313.250183 394.108368,318.412048 391.456726,318.392670 
	C391.284363,318.421631 391.049744,318.162476 391.045349,317.755066 
	C391.795044,312.617157 395.558746,310.115326 399.154083,312.431519 
	C400.848877,313.523346 401.624542,316.041809 402.816711,317.913818 
z"/>
<path fill="#D9083C" opacity="1.000000" stroke="none" 
	d="
M386.522034,318.487335 
	C386.495789,314.152863 387.768768,310.706146 391.869110,308.671997 
	C395.724976,306.759186 399.047729,306.580536 401.539337,310.533875 
	C398.835724,310.362518 396.375610,309.545197 394.012787,309.766449 
	C389.701782,310.170135 387.928772,314.584503 390.223145,318.578552 
	C390.214325,318.767334 390.022980,319.093353 390.022980,319.093323 
	C388.947754,318.949921 387.872498,318.806549 386.522034,318.487335 
z"/>
<path fill="#D9083C" opacity="1.000000" stroke="none" 
	d="
M386.619995,342.187927 
	C387.353973,346.825623 384.300842,348.581482 380.408539,349.972046 
	C380.337036,348.260986 380.618958,346.517181 381.329010,344.440491 
	C381.935364,343.822601 382.113556,343.537598 382.291748,343.252594 
	C383.599884,342.861206 384.907959,342.469788 386.619995,342.187927 
z"/>
<path fill="none" opacity="1.000000" stroke="none" 
	d="
M393.988647,341.728607 
	C393.993347,338.626923 393.210297,335.183014 397.607819,334.079254 
	C397.909302,334.003601 397.874542,332.588257 397.998047,331.392456 
	C398.339294,334.286346 398.678619,337.583710 399.016541,341.318329 
	C398.851318,341.829895 398.687500,341.904175 397.883698,342.000916 
	C396.158691,341.925079 395.073669,341.826843 393.988647,341.728607 
z"/>
<path fill="none" opacity="1.000000" stroke="none" 
	d="
M402.712585,335.279755 
	C403.030945,341.089355 403.024200,341.062988 408.681641,339.617218 
	C408.975159,339.542175 409.547791,340.559387 410.001007,341.404907 
	C407.444489,342.193970 405.156006,344.963623 402.127686,342.345215 
	C402.139496,339.860779 402.282928,337.704712 402.712585,335.279755 
z"/>
<path fill="#D9083C" opacity="1.000000" stroke="none" 
	d="
M391.629059,318.363708 
	C394.108368,318.412048 396.237732,313.250183 398.713989,318.341431 
	C397.934662,318.889618 397.465332,318.963409 396.995972,319.037201 
	C395.604431,318.984802 394.212891,318.932404 392.302612,318.793701 
	C391.783844,318.707397 391.629059,318.363708 391.629059,318.363708 
z"/>
<path fill="#D9083C" opacity="1.000000" stroke="none" 
	d="
M459.747650,342.424805 
	C460.692474,343.811005 461.637848,345.230743 462.583191,346.650482 
	C462.359833,347.026733 462.136444,347.402954 461.913086,347.779205 
	C460.790833,347.309204 459.668579,346.839233 458.273163,346.184631 
	C458.000000,346.000000 458.004700,346.002991 458.004700,346.002991 
	C458.394897,344.976685 458.785065,343.950348 459.424988,342.577332 
	C459.674744,342.230652 459.748169,342.458344 459.747650,342.424805 
z"/>
<path fill="none" opacity="1.000000" stroke="none" 
	d="
M372.998932,340.431793 
	C372.955078,341.472260 372.911865,342.107788 372.868683,342.743317 
	C372.694580,342.746124 372.520508,342.748932 372.346405,342.751709 
	C372.346405,339.237579 372.346405,335.723450 372.346405,332.209290 
	C372.564117,332.196686 372.781860,332.184052 372.999573,332.171417 
	C372.999573,334.789886 372.999573,337.408386 372.998932,340.431793 
z"/>
<path fill="none" opacity="1.000000" stroke="none" 
	d="
M333.997559,344.662659 
	C333.997559,342.172913 333.997559,340.098206 333.997559,338.023468 
	C334.238007,338.027039 334.478455,338.030609 334.718903,338.034180 
	C334.718903,341.325714 334.718903,344.617218 334.718903,347.908752 
	C334.529022,347.913574 334.339172,347.918365 334.149292,347.923187 
	C334.098724,346.974670 334.048126,346.026184 333.997559,344.662659 
z"/>
<path fill="none" opacity="1.000000" stroke="none" 
	d="
M374.961365,340.082031 
	C374.536743,337.898682 374.140747,335.365234 373.744720,332.831818 
	C374.159790,332.787231 374.574890,332.742645 374.989960,332.698090 
	C374.989960,335.042694 374.989960,337.387329 374.961365,340.082031 
z"/>
<path fill="none" opacity="1.000000" stroke="none" 
	d="
M397.023010,319.354401 
	C397.465332,318.963409 397.934662,318.889618 398.739807,318.692963 
	C399.075562,318.570099 399.542847,318.723114 399.767944,318.821960 
	C399.610016,319.725281 399.227020,320.529785 398.843994,321.334259 
	C398.246002,320.780029 397.648010,320.225800 397.023010,319.354401 
z"/>
<path fill="none" opacity="1.000000" stroke="none" 
	d="
M376.669617,339.787598 
	C376.289490,338.359192 376.133667,336.701385 375.977844,335.043549 
	C376.283234,335.029419 376.588593,335.015289 376.893951,335.001160 
	C376.893951,336.520172 376.893951,338.039154 376.669617,339.787598 
z"/>
<path fill="none" opacity="1.000000" stroke="none" 
	d="
M327.601196,346.950562 
	C327.174042,346.261383 327.061340,345.509094 326.993591,344.377380 
	C327.330902,344.961121 327.623291,345.924255 327.601196,346.950562 
z"/>
<path fill="none" opacity="1.000000" stroke="none" 
	d="
M382.247772,342.901611 
	C382.113556,343.537598 381.935364,343.822601 381.577881,344.123688 
	C381.129303,343.404419 380.761536,342.682068 380.661774,341.924377 
	C380.637695,341.741425 381.499939,341.441803 381.954590,341.195801 
	C382.037659,341.647430 382.120728,342.099030 382.247772,342.901611 
z"/>
<path fill="none" opacity="1.000000" stroke="none" 
	d="
M391.456726,318.392670 
	C391.629059,318.363708 391.783844,318.707397 391.889709,318.863342 
	C391.362244,319.238983 390.728943,319.458710 390.059296,319.385895 
	C390.022980,319.093353 390.214325,318.767334 390.443787,318.579956 
	C390.673248,318.392578 391.049744,318.162476 391.049744,318.162476 
	C391.049744,318.162476 391.284363,318.421631 391.456726,318.392670 
z"/>
<path fill="none" opacity="1.000000" stroke="none" 
	d="
M332.604065,337.045105 
	C332.208313,337.286682 331.814575,337.284973 331.423065,337.254700 
	C331.412018,337.253845 331.424530,336.948517 331.426025,336.785156 
	C331.819489,336.789368 332.212982,336.793610 332.604065,337.045105 
z"/>
<path fill="none" opacity="1.000000" stroke="none" 
	d="
M330.079468,346.522369 
	C330.119049,345.815216 330.202972,345.371979 330.286896,344.928711 
	C330.459198,344.931458 330.631531,344.934204 330.803833,344.936981 
	C330.803833,345.579712 330.817596,346.223083 330.788422,346.864471 
	C330.784210,346.956879 330.550110,347.128876 330.463196,347.106354 
	C330.331299,347.072205 330.235138,346.899872 330.079468,346.522369 
z"/>
<path fill="none" opacity="1.000000" stroke="none" 
	d="
M513.970337,342.460449 
	C513.409119,342.736816 512.802612,342.731110 512.075500,342.431641 
	C512.611633,342.151398 513.268311,342.164886 513.970337,342.460449 
z"/>
<path fill="none" opacity="1.000000" stroke="none" 
	d="
M435.008850,338.396484 
	C435.174347,338.898376 435.337799,339.778992 435.260071,340.857056 
	C435.014862,340.294739 435.010834,339.534973 435.008850,338.396484 
z"/>
<path fill="none" opacity="1.000000" stroke="none" 
	d="
M377.278931,350.399902 
	C377.152069,350.559082 376.931519,350.581879 376.710999,350.604645 
	C376.869110,350.490936 377.027222,350.377228 377.278931,350.399902 
z"/>
<path fill="none" opacity="1.000000" stroke="none" 
	d="
M331.013367,350.754578 
	C330.903442,350.588806 330.957367,350.421448 331.011261,350.254089 
	C331.066589,350.420380 331.121918,350.586670 331.013367,350.754578 
z"/>
<path fill="none" opacity="1.000000" stroke="none" 
	d="
M372.738495,322.354401 
	C372.993134,322.369293 373.131775,322.504364 373.270416,322.639465 
	C373.054443,322.584503 372.838470,322.529572 372.738495,322.354401 
z"/>
<path fill="none" opacity="1.000000" stroke="none" 
	d="
M341.468262,351.449280 
	C341.523590,351.416534 341.412964,351.482025 341.468262,351.449280 
z"/>
<path fill="none" opacity="1.000000" stroke="none" 
	d="
M385.465424,337.450134 
	C385.520721,337.417358 385.410126,337.482910 385.465424,337.450134 
z"/>
<path fill="none" opacity="1.000000" stroke="none" 
	d="
M343.447388,331.534790 
	C343.412994,331.477600 343.481750,331.591949 343.447388,331.534790 
z"/>
<path fill="none" opacity="1.000000" stroke="none" 
	d="
M372.468506,325.452240 
	C372.523865,325.419373 372.413116,325.485107 372.468506,325.452240 
z"/>
<path fill="#D9083C" opacity="1.000000" stroke="none" 
	d="
M142.603271,70.199692 
	C140.931183,55.724869 148.570602,44.577087 161.915817,41.502956 
	C174.002014,38.718845 185.904633,45.140450 189.910034,56.606155 
	C194.909027,70.916084 188.153015,85.529572 174.607239,89.706635 
	C160.619980,94.019829 146.722885,85.711678 142.603271,70.199692 
M162.015503,74.810226 
	C162.946304,75.150246 163.852890,75.669868 164.812103,75.799210 
	C168.973175,76.360268 172.885101,75.796516 175.349686,71.957832 
	C177.768860,68.189896 177.914276,64.091621 175.663345,60.192268 
	C173.251740,56.014545 168.973892,54.726475 164.928665,56.127773 
	C162.071472,57.117519 159.006943,59.863274 157.760345,62.608540 
	C155.779541,66.970787 157.180054,71.365776 162.015503,74.810226 
z"/>
<path fill="#D9083C" opacity="1.000000" stroke="none" 
	d="
M218.659454,80.271072 
	C212.533539,70.860123 212.137482,61.504013 218.002594,52.348427 
	C223.521866,43.732681 231.892670,39.866695 241.920898,41.179825 
	C252.109955,42.514011 259.333344,48.325119 262.492950,58.377022 
	C266.000946,69.537354 260.915894,82.119026 250.931747,87.537682 
	C239.690994,93.638329 227.773132,91.046310 218.659454,80.271072 
M230.408661,60.169403 
	C227.296860,67.579590 229.848785,74.270645 236.356018,75.763123 
	C241.416306,76.923729 246.200409,74.519302 248.171036,69.825081 
	C250.008209,65.448830 248.494995,59.955204 244.740433,57.370495 
	C240.607010,54.524971 234.996674,55.405079 230.408661,60.169403 
z"/>
<path fill="none" opacity="1.000000" stroke="none" 
	d="
M183.639084,336.910278 
	C202.701965,317.600464 221.764847,298.290680 241.193665,278.610199 
	C259.298492,296.532532 276.773499,313.831421 294.572510,331.456055 
	C295.044586,332.074738 295.277557,332.180176 295.682739,332.409821 
	C295.823700,332.930573 295.877228,333.139618 295.687805,333.552185 
	C294.624084,335.421631 293.803284,337.087585 292.744141,338.901489 
	C292.336060,339.127747 292.166260,339.206116 291.996490,339.284454 
	C290.270264,339.162964 288.544006,339.041473 286.448517,338.406189 
	C286.656494,336.173248 287.233734,334.454071 288.106903,331.853546 
	C281.708923,335.088470 275.991028,337.371399 271.078766,331.137512 
	C266.065613,338.128326 267.135254,346.201630 273.230652,349.185333 
	C273.289398,349.724396 273.441559,349.943176 273.766785,350.041565 
	C273.720490,371.609619 273.674194,393.177673 273.317078,415.478668 
	C271.707794,416.367950 270.409576,416.658264 269.110870,416.660370 
	C250.995560,416.689941 232.880173,416.685883 214.764832,416.667633 
	C213.494568,416.666351 212.224472,416.489471 210.443024,416.355927 
	C210.443024,414.262268 210.443268,412.471222 210.442993,410.680176 
	C210.439804,390.071869 210.472656,369.463409 210.376480,348.855560 
	C210.367050,346.834290 209.564713,344.816711 209.130432,342.797424 
	C207.635742,341.583618 206.141068,340.369843 203.946747,338.988647 
	C197.947510,338.800049 192.643173,338.893127 187.351776,338.674072 
	C186.092010,338.621918 184.875473,337.526062 183.639084,336.910278 
M255.105881,350.282715 
	C255.192871,350.331390 255.279877,350.380066 255.366882,350.428711 
	C255.246735,350.284088 255.126572,350.139465 255.105972,349.184235 
	C255.568161,346.126434 256.030365,343.068634 256.499756,340.015533 
	C258.468262,342.551514 254.587677,347.541046 260.484741,348.995422 
	C260.685364,347.406342 260.944153,346.169952 260.979736,344.927216 
	C261.103821,340.595001 259.995514,336.119507 265.005737,333.128326 
	C266.965027,331.958588 266.578766,328.742737 263.701233,328.285065 
	C261.450867,327.927124 258.539551,328.320984 256.691772,329.543976 
	C252.836624,332.095551 251.376846,345.631287 254.069672,349.711304 
	C254.208450,349.921570 254.678940,349.912872 255.105881,350.282715 
M249.977524,321.906860 
	C247.655457,317.264099 247.266663,317.156189 243.773941,319.819336 
	C245.882874,328.317383 245.451508,336.502106 243.297424,345.407501 
	C240.339020,343.051331 235.747604,343.528534 236.038025,338.605469 
	C236.345383,333.394806 241.153931,335.084412 243.935608,333.629303 
	C243.778458,328.381927 241.016251,326.632965 235.977417,327.779663 
	C231.173859,328.872833 229.882812,332.697266 228.477051,336.314453 
	C226.386047,341.694946 230.817871,349.116028 236.711700,350.749176 
	C242.204971,352.271362 249.043991,348.664856 249.703598,342.923676 
	C250.468002,336.270050 249.967239,329.471008 249.977524,321.906860 
M280.526428,328.219849 
	C279.171875,328.052734 277.817352,327.885620 276.462830,327.718506 
	C276.505920,328.628723 276.549011,329.538910 276.592102,330.449127 
	C277.780670,329.905396 278.969269,329.361664 280.526428,328.219849 
M279.614655,332.474152 
	C279.834991,332.530151 280.055298,332.586151 280.275635,332.642151 
	C280.133942,332.503906 279.992249,332.365631 279.614655,332.474152 
z"/>
<path fill="#D9083C" opacity="1.000000" stroke="none" 
	d="
M209.081650,343.276855 
	C209.564713,344.816711 210.367050,346.834290 210.376480,348.855560 
	C210.472656,369.463409 210.439804,390.071869 210.442993,410.680176 
	C210.443268,412.471222 210.443024,414.262268 210.443024,416.355927 
	C212.224472,416.489471 213.494568,416.666351 214.764832,416.667633 
	C232.880173,416.685883 250.995560,416.689941 269.110870,416.660370 
	C270.409576,416.658264 271.707794,416.367950 273.379639,415.920044 
	C272.636505,416.377625 271.524597,417.771942 270.402771,417.779938 
	C251.455795,417.915192 232.506943,417.795135 213.560165,417.943390 
	C209.377441,417.976105 209.132019,415.750610 209.134537,412.564606 
	C209.152618,389.628571 209.078049,366.692413 209.081650,343.276855 
z"/>
<path fill="none" opacity="1.000000" stroke="none" 
	d="
M273.150970,348.985443 
	C267.135254,346.201630 266.065613,338.128326 271.078766,331.137512 
	C275.991028,337.371399 281.708923,335.088470 288.106903,331.853546 
	C287.233734,334.454071 286.656494,336.173248 286.091614,338.305115 
	C284.974945,338.839752 283.845947,338.961731 282.050934,339.053040 
	C279.887970,339.508026 278.390991,339.993744 276.894043,340.479431 
	C276.705139,340.569244 276.516235,340.659088 275.840332,341.167969 
	C274.886841,343.721771 274.420410,345.856506 273.802795,348.149536 
	C273.618713,348.632629 273.451843,348.858490 273.150970,348.985443 
z"/>
<path fill="#D9083C" opacity="1.000000" stroke="none" 
	d="
M309.033691,331.961609 
	C313.190063,336.958099 313.293030,347.175751 308.357941,351.208771 
	C307.509125,348.959900 306.489746,347.080933 306.117615,345.081482 
	C305.551208,342.038635 305.433289,338.912262 305.062439,335.410706 
	C305.000000,335.000000 304.995697,335.004364 305.372620,335.063232 
	C306.882080,339.226959 308.014648,343.331757 309.147217,347.436584 
	C309.541687,347.402893 309.936157,347.369232 310.330658,347.335571 
	C309.872345,342.235229 309.414062,337.134918 308.975861,332.016998 
	C308.995941,331.999390 309.033691,331.961609 309.033691,331.961609 
z"/>
<path fill="#D9083C" opacity="1.000000" stroke="none" 
	d="
M273.230652,349.185333 
	C273.451843,348.858490 273.618713,348.632629 274.226746,348.175232 
	C278.781158,348.153931 283.080750,350.946289 287.528229,346.709045 
	C283.382568,346.028900 280.217163,345.509583 277.250122,344.907898 
	C277.695801,344.667389 277.882660,344.455872 278.009033,344.190918 
	C280.469147,344.182129 282.998566,343.828278 285.361694,344.302643 
	C286.642700,344.559814 287.640350,346.228333 288.765839,347.260223 
	C287.626465,348.442383 286.541718,350.560059 285.337402,350.630402 
	C281.793915,350.837372 278.202942,350.232086 274.198669,349.993164 
	C273.441559,349.943176 273.289398,349.724396 273.230652,349.185333 
z"/>
<path fill="#D9083C" opacity="1.000000" stroke="none" 
	d="
M183.282562,336.998474 
	C184.875473,337.526062 186.092010,338.621918 187.351776,338.674072 
	C192.643173,338.893127 197.947510,338.800049 203.611908,338.991882 
	C197.320587,339.414001 190.665009,339.708710 184.006729,339.794708 
	C183.658203,339.799225 183.286789,338.030121 183.282562,336.998474 
z"/>
<path fill="#D9083C" opacity="1.000000" stroke="none" 
	d="
M277.051758,344.990265 
	C280.217163,345.509583 283.382568,346.028900 287.528229,346.709045 
	C283.080750,350.946289 278.781158,348.153931 274.377960,348.016937 
	C274.420410,345.856506 274.886841,343.721771 275.680237,341.437805 
	C276.002197,341.906433 275.997253,342.524231 276.058289,343.735931 
	C276.433441,344.549957 276.742584,344.770111 277.051758,344.990265 
z"/>
<path fill="#D9083C" opacity="1.000000" stroke="none" 
	d="
M291.996094,339.553833 
	C292.166260,339.206116 292.336060,339.127747 293.108215,339.008972 
	C294.457733,339.053375 295.204895,339.138184 295.939117,339.558105 
	C296.623871,340.936066 297.321564,341.978882 298.019257,343.021729 
	C298.019257,343.021729 297.998199,342.999939 298.084534,343.229797 
	C298.454071,343.645111 298.737274,343.830536 299.020508,344.015961 
	C299.020508,344.015961 298.999847,344.001404 299.141235,344.310608 
	C300.561493,345.588959 301.840424,346.558044 303.119354,347.527161 
	C299.208008,348.337494 296.230713,347.628021 294.470398,344.089630 
	C293.881714,342.906250 292.818665,341.958893 291.972473,340.903656 
	C291.980225,340.543518 291.987976,340.183380 291.996094,339.553833 
z"/>
<path fill="#D9083C" opacity="1.000000" stroke="none" 
	d="
M292.018341,341.276398 
	C292.818665,341.958893 293.881714,342.906250 294.470398,344.089630 
	C296.230713,347.628021 299.208008,348.337494 303.119354,347.527161 
	C301.840424,346.558044 300.561493,345.588959 299.132263,344.301788 
	C300.904602,344.952850 302.860107,345.868591 304.686951,346.993317 
	C304.831635,347.082428 304.084503,349.366089 303.750793,349.366364 
	C301.412048,349.368256 298.483948,349.823547 296.878967,348.620361 
	C294.736237,347.014008 293.620850,344.037323 292.018341,341.276398 
z"/>
<path fill="#D9083C" opacity="1.000000" stroke="none" 
	d="
M317.887756,335.157715 
	C318.901001,335.334503 319.555725,335.751465 320.305969,336.456055 
	C319.828644,340.997467 319.255768,345.251251 318.640991,349.816193 
	C315.561859,345.510742 317.165833,340.349854 317.887756,335.157715 
z"/>
<path fill="none" opacity="1.000000" stroke="none" 
	d="
M295.952087,339.223022 
	C295.204895,339.138184 294.457733,339.053375 293.346497,338.861053 
	C293.803284,337.087585 294.624084,335.421631 295.841736,333.504211 
	C296.238556,333.252747 296.559296,333.285919 296.655029,333.564636 
	C297.383240,334.261292 298.015717,334.679260 298.648193,335.097260 
	C297.922028,336.422333 303.586823,337.580872 298.054565,338.983246 
	C296.889984,339.043304 296.421021,339.133148 295.952087,339.223022 
z"/>
<path fill="#D9083C" opacity="1.000000" stroke="none" 
	d="
M295.595337,332.098145 
	C295.277557,332.180176 295.044586,332.074738 294.898743,331.575165 
	C298.755432,327.283112 302.649353,326.972717 307.838043,330.675049 
	C308.000000,331.000000 307.996338,331.004333 307.585510,331.006805 
	C303.159424,329.719177 299.213013,329.160736 295.595337,332.098145 
z"/>
<path fill="#D9083C" opacity="1.000000" stroke="none" 
	d="
M299.018585,335.060852 
	C298.015717,334.679260 297.383240,334.261292 297.115356,333.510162 
	C299.985199,333.786133 302.490448,334.395264 304.995697,335.004395 
	C304.995697,335.004364 305.000000,335.000000 305.002014,334.998016 
	C303.132355,335.005493 301.260681,335.014954 299.018585,335.060852 
z"/>
<path fill="#D9083C" opacity="1.000000" stroke="none" 
	d="
M277.016357,340.823669 
	C278.390991,339.993744 279.887970,339.508026 281.723480,339.160706 
	C280.420898,339.922058 278.779785,340.544983 277.016357,340.823669 
z"/>
<path fill="#D9083C" opacity="1.000000" stroke="none" 
	d="
M295.939117,339.558136 
	C296.421021,339.133148 296.889984,339.043304 297.700256,339.068481 
	C298.029846,340.206635 298.018127,341.229828 298.012817,342.637360 
	C297.321564,341.978882 296.623871,340.936066 295.939117,339.558136 
z"/>
<path fill="#D9083C" opacity="1.000000" stroke="none" 
	d="
M277.250122,344.907898 
	C276.742584,344.770111 276.433441,344.549957 276.045349,344.044617 
	C276.421112,343.851501 276.875793,343.943573 277.669739,344.113281 
	C277.882660,344.455872 277.695801,344.667389 277.250122,344.907898 
z"/>
<path fill="#D9083C" opacity="1.000000" stroke="none" 
	d="
M298.917664,343.780426 
	C298.737274,343.830536 298.454071,343.645111 298.075409,343.217712 
	C298.258270,343.165436 298.536560,343.355164 298.917664,343.780426 
z"/>
<path fill="#D9083C" opacity="1.000000" stroke="none" 
	d="
M308.001831,330.998535 
	C308.339539,331.070984 308.610840,331.245361 308.925629,331.740906 
	C309.033691,331.961609 308.995941,331.999390 308.747803,331.919189 
	C308.216797,331.630157 308.049042,331.351929 307.996338,331.004333 
	C307.996338,331.004333 308.000000,331.000000 308.001831,330.998535 
z"/>
<path fill="none" opacity="1.000000" stroke="none" 
	d="
M456.000275,270.565613 
	C481.809418,270.565613 507.118500,270.565613 532.746826,270.565613 
	C532.746826,281.571136 532.746826,292.330597 532.746826,303.494690 
	C477.016846,303.494690 421.169525,303.494690 364.950012,303.494690 
	C364.950012,292.828949 364.950012,282.096008 364.950012,270.565613 
	C395.042542,270.565613 425.271393,270.565613 456.000275,270.565613 
z"/>
<path fill="#D9083C" opacity="1.000000" stroke="none" 
	d="
M391.045349,317.755066 
	C391.049744,318.162476 390.673248,318.392578 390.452637,318.391174 
	C387.928772,314.584503 389.701782,310.170135 394.012787,309.766449 
	C396.375610,309.545197 398.835724,310.362518 401.636688,310.870483 
	C402.021423,311.029449 401.992340,311.000916 402.117737,311.307434 
	C402.866577,313.299774 403.489990,314.985626 404.113403,316.671478 
	C403.827179,317.047119 403.540985,317.422760 403.035736,317.856110 
	C401.624542,316.041809 400.848877,313.523346 399.154083,312.431519 
	C395.558746,310.115326 391.795044,312.617157 391.045349,317.755066 
z"/>
<path fill="#D9083C" opacity="1.000000" stroke="none" 
	d="
M404.341736,316.469482 
	C403.489990,314.985626 402.866577,313.299774 402.105469,311.291443 
	C402.835175,312.735138 403.702606,314.501312 404.341736,316.469482 
z"/>
<path fill="#D9083C" opacity="1.000000" stroke="none" 
	d="
M393.728790,341.847717 
	C395.073669,341.826843 396.158691,341.925079 397.641937,342.120697 
	C398.033600,342.551086 398.086426,342.898254 398.010986,343.214844 
	C397.431732,345.645569 399.528900,349.578857 394.977936,349.613312 
	C394.316589,349.618347 393.622986,345.366852 392.952728,342.657227 
	C393.130402,342.141937 393.299652,342.054413 393.728790,341.847717 
z"/>
<path fill="none" opacity="1.000000" stroke="none" 
	d="
M425.132599,342.370056 
	C426.207458,340.420349 427.422058,338.819916 429.395294,336.219879 
	C429.691925,338.627625 429.852966,339.934662 430.011017,341.635864 
	C428.429474,342.259796 426.850922,342.489594 425.132599,342.370056 
z"/>
<path fill="#D9083C" opacity="1.000000" stroke="none" 
	d="
M441.990234,341.974243 
	C442.447571,341.963806 442.904907,341.953339 443.687500,342.054352 
	C443.426392,342.573792 442.840027,342.981720 442.121155,342.911682 
	C441.988617,342.433655 441.990234,341.974243 441.990234,341.974243 
z"/>
<path fill="none" opacity="1.000000" stroke="none" 
	d="
M441.846375,341.742676 
	C441.990234,341.974243 441.988617,342.433655 441.976929,342.663055 
	C441.368927,342.803345 440.772552,342.714233 440.082520,342.329498 
	C440.560059,341.859589 441.131287,341.685333 441.846375,341.742676 
z"/>
<path fill="#D9083C" opacity="1.000000" stroke="none" 
	d="
M457.997375,345.997375 
	C457.951874,346.721832 457.909058,347.448944 457.866211,348.176056 
	C457.661621,348.153931 457.457031,348.131805 457.252472,348.109680 
	C457.344940,347.518555 457.437408,346.927399 457.767303,346.169617 
	C458.004700,346.002991 458.000000,346.000000 457.997375,345.997375 
z"/>
<path fill="#D9083C" opacity="1.000000" stroke="none" 
	d="
M428.011780,350.749786 
	C427.901611,350.585815 427.955627,350.420471 428.009613,350.255096 
	C428.065063,350.419525 428.120514,350.583954 428.011780,350.749786 
z"/>
<path fill="none" opacity="1.000000" stroke="none" 
	d="
M418.998779,338.001221 
	C419.458160,337.355896 419.917542,336.710571 420.376923,336.065277 
	C420.608734,336.328735 420.840515,336.592224 421.072296,336.855713 
	C420.415680,337.446014 419.759094,338.036346 419.051239,338.313324 
	C419.000000,338.000000 418.998779,338.001221 418.998779,338.001221 
z"/>
<path fill="none" opacity="1.000000" stroke="none" 
	d="
M419.000610,337.999756 
	C418.622467,337.081757 418.243683,336.164001 417.864929,335.246277 
	C418.140839,335.161346 418.416718,335.076416 418.692627,334.991486 
	C418.794250,335.769714 418.895905,336.547943 418.998169,337.663696 
	C418.998779,338.001221 419.000000,338.000000 419.000610,337.999756 
z"/>
<path fill="none" opacity="1.000000" stroke="none" 
	d="
M425.279297,336.398041 
	C425.151794,336.559265 424.931061,336.582703 424.710327,336.606201 
	C424.868927,336.490875 425.027527,336.375549 425.279297,336.398041 
z"/>
<path fill="none" opacity="1.000000" stroke="none" 
	d="
M416.533417,337.552307 
	C416.476044,337.587280 416.590790,337.517303 416.533417,337.552307 
z"/>
<path fill="none" opacity="1.000000" stroke="none" 
	d="
M449.531067,337.548462 
	C449.477295,337.580139 449.584808,337.516785 449.531067,337.548462 
z"/>
<path fill="none" opacity="1.000000" stroke="none" 
	d="
M442.467163,339.449371 
	C442.522980,339.415649 442.411377,339.483093 442.467163,339.449371 
z"/>
<path fill="none" opacity="1.000000" stroke="none" 
	d="
M161.680191,74.607574 
	C157.180054,71.365776 155.779541,66.970787 157.760345,62.608540 
	C159.006943,59.863274 162.071472,57.117519 164.928665,56.127773 
	C168.973892,54.726475 173.251740,56.014545 175.663345,60.192268 
	C177.914276,64.091621 177.768860,68.189896 175.349686,71.957832 
	C172.885101,75.796516 168.973175,76.360268 164.812103,75.799210 
	C163.852890,75.669868 162.946304,75.150246 161.680191,74.607574 
z"/>
<path fill="none" opacity="1.000000" stroke="none" 
	d="
M230.654739,59.855473 
	C234.996674,55.405079 240.607010,54.524971 244.740433,57.370495 
	C248.494995,59.955204 250.008209,65.448830 248.171036,69.825081 
	C246.200409,74.519302 241.416306,76.923729 236.356018,75.763123 
	C229.848785,74.270645 227.296860,67.579590 230.654739,59.855473 
z"/>
<path fill="none" opacity="1.000000" stroke="none" 
	d="
M249.996613,322.320984 
	C249.967239,329.471008 250.468002,336.270050 249.703598,342.923676 
	C249.043991,348.664856 242.204971,352.271362 236.711700,350.749176 
	C230.817871,349.116028 226.386047,341.694946 228.477051,336.314453 
	C229.882812,332.697266 231.173859,328.872833 235.977417,327.779663 
	C241.016251,326.632965 243.778458,328.381927 243.935608,333.629303 
	C241.153931,335.084412 236.345383,333.394806 236.038025,338.605469 
	C235.747604,343.528534 240.339020,343.051331 243.297424,345.407501 
	C245.451508,336.502106 245.882874,328.317383 243.773941,319.819336 
	C247.266663,317.156189 247.655457,317.264099 249.996613,322.320984 
z"/>
<path fill="none" opacity="1.000000" stroke="none" 
	d="
M254.994980,350.006104 
	C254.678940,349.912872 254.208450,349.921570 254.069672,349.711304 
	C251.376846,345.631287 252.836624,332.095551 256.691772,329.543976 
	C258.539551,328.320984 261.450867,327.927124 263.701233,328.285065 
	C266.578766,328.742737 266.965027,331.958588 265.005737,333.128326 
	C259.995514,336.119507 261.103821,340.595001 260.979736,344.927216 
	C260.944153,346.169952 260.685364,347.406342 260.484741,348.995422 
	C254.587677,347.541046 258.468262,342.551514 256.496155,340.013184 
	C256.030365,343.068634 255.568161,346.126434 255.052979,349.592102 
	C255.000000,350.000000 254.994980,350.006104 254.994980,350.006104 
z"/>
<path fill="#D9083C" opacity="1.000000" stroke="none" 
	d="
M307.585510,331.006805 
	C308.049042,331.351929 308.216797,331.630157 308.727722,331.936768 
	C309.414062,337.134918 309.872345,342.235229 310.330658,347.335571 
	C309.936157,347.369232 309.541687,347.402893 309.147217,347.436584 
	C308.014648,343.331757 306.882080,339.226959 305.372620,335.063263 
	C302.490448,334.395264 299.985199,333.786133 297.019623,333.231445 
	C296.559296,333.285919 296.238556,333.252747 296.084656,333.300720 
	C295.877228,333.139618 295.823700,332.930573 295.682739,332.409821 
	C299.213013,329.160736 303.159424,329.719177 307.585510,331.006805 
z"/>
<path fill="none" opacity="1.000000" stroke="none" 
	d="
M280.342133,328.518860 
	C278.969269,329.361664 277.780670,329.905396 276.592102,330.449127 
	C276.549011,329.538910 276.505920,328.628723 276.462830,327.718506 
	C277.817352,327.885620 279.171875,328.052734 280.342133,328.518860 
z"/>
<path fill="none" opacity="1.000000" stroke="none" 
	d="
M279.732605,332.350769 
	C279.992249,332.365631 280.133942,332.503906 280.275635,332.642151 
	C280.055298,332.586151 279.834991,332.530151 279.732605,332.350769 
z"/>
<path fill="none" opacity="1.000000" stroke="none" 
	d="
M255.003204,349.997437 
	C255.126572,350.139465 255.246735,350.284088 255.366882,350.428711 
	C255.279877,350.380066 255.192871,350.331390 255.050430,350.144409 
	C254.994980,350.006104 255.000000,350.000000 255.003204,349.997437 
z"/>
</svg>