<svg version="1.1" id="Layer_1" xmlns="http://www.w3.org/2000/svg" xmlns:xlink="http://www.w3.org/1999/xlink" x="0px" y="0px"
	 width="100%" viewBox="0 0 640 560" enable-background="new 0 0 640 560" xml:space="preserve">
<path fill="#D9083C" opacity="1.000000" stroke="none" 
	d="
M220.999817,428.413574 
	C192.676132,428.415527 164.852432,428.429291 137.028763,428.411621 
	C128.490967,428.406189 125.687103,425.604462 125.685562,416.987915 
	C125.669991,329.684906 125.702866,242.381836 125.599571,155.078934 
	C125.594093,150.448074 126.798035,148.671967 131.757324,148.685776 
	C183.905457,148.831039 236.054291,148.807159 288.202515,148.673248 
	C292.646454,148.661850 293.888489,150.137222 293.828583,154.464050 
	C293.637177,168.287125 293.244324,182.153976 294.116547,195.928741 
	C294.691620,205.010574 294.741119,213.809418 294.068359,222.953323 
	C292.692169,241.657028 293.708038,260.536774 293.740021,279.344025 
	C293.764465,293.725494 302.820923,301.144531 314.685852,306.244843 
	C328.473022,312.171448 343.147552,314.169220 357.920807,315.693451 
	C371.707489,317.115875 385.500946,317.083313 399.310516,316.179138 
	C400.994751,316.068817 402.608551,316.348969 404.079895,317.355408 
	C404.896973,319.621765 403.259338,321.132294 402.337006,322.794220 
	C399.185425,328.472900 396.003113,334.136841 392.700287,339.728271 
	C391.221558,342.231628 391.223175,344.062531 393.507446,346.263245 
	C401.304718,353.775360 408.944611,361.454468 416.513489,369.197937 
	C418.868530,371.607300 420.854767,372.036926 423.888611,370.190857 
	C430.823578,365.971039 437.993500,362.137299 445.477264,357.915863 
	C448.762238,365.396454 450.402771,372.855835 451.984833,380.227875 
	C453.074127,385.303894 455.176208,387.249817 460.350372,386.808411 
	C465.312561,386.385071 470.344055,386.851379 475.335693,386.669403 
	C478.829590,386.542023 480.513153,387.544525 480.428101,391.419495 
	C480.223419,400.745178 480.425415,410.078949 480.324432,419.407990 
	C480.258636,425.488953 477.138489,428.382294 470.911987,428.439056 
	C468.246582,428.463348 465.580627,428.421417 462.914917,428.421326 
	C382.443207,428.417786 301.971527,428.415649 220.999817,428.413574 
M162.010376,174.570663 
	C158.283432,173.433548 155.072021,170.723114 150.976868,170.665222 
	C148.093185,181.230652 149.241867,183.565308 158.630096,187.105927 
	C167.042389,190.278458 175.430893,193.515381 183.798370,196.804062 
	C185.075592,197.306046 186.854004,197.337326 187.200714,199.222168 
	C186.559387,200.681778 185.141785,200.842972 183.941818,201.315933 
	C174.030228,205.222610 164.118118,209.128143 154.193741,213.002197 
	C152.485199,213.669174 150.351578,214.043945 150.243607,216.265884 
	C150.055542,220.135391 149.276886,224.097260 150.850906,228.090408 
	C154.335526,227.676819 157.104141,226.111893 159.971130,224.859451 
	C173.090286,219.128326 186.170822,213.307144 199.337921,207.688644 
	C202.693039,206.257034 204.878342,204.721771 204.763321,200.494186 
	C204.643265,196.081207 204.489792,192.665115 199.415665,190.647430 
	C187.045731,185.728653 174.922256,180.190048 162.010376,174.570663 
M240.500000,260.846344 
	C247.995911,260.845947 255.492020,260.813171 262.987640,260.860626 
	C266.096863,260.880310 268.583160,260.546600 268.674103,256.451019 
	C268.770294,252.118927 266.016174,252.169861 263.030945,252.171432 
	C245.707108,252.180557 228.383224,252.153351 211.059448,252.186188 
	C208.476974,252.191086 205.440491,251.605865 205.374985,255.821548 
	C205.313202,259.795837 207.347015,260.938019 211.016251,260.885773 
	C220.509094,260.750580 230.005203,260.844055 240.500000,260.846344 
z"/>
<path fill="#D9083C" opacity="1.000000" stroke="none" 
	d="
M444.751465,346.131012 
	C438.069855,349.897125 431.623688,353.388977 425.363312,357.187012 
	C422.573181,358.879669 420.700104,358.700439 418.473480,356.251587 
	C414.780518,352.189972 410.849579,348.328888 406.829712,344.586487 
	C404.603821,342.514252 404.331024,340.694702 405.919006,338.082275 
	C409.291199,332.534546 412.418091,326.837189 415.622131,321.187958 
	C418.837585,315.518616 416.063385,309.098480 409.665131,307.356445 
	C403.725403,305.739258 397.810547,304.020660 391.834412,302.551270 
	C388.153687,301.646271 386.597809,299.639465 386.780945,295.804901 
	C387.019073,290.818329 386.978485,285.810455 386.848877,280.817169 
	C386.760834,277.423737 388.149902,275.672333 391.481781,274.878204 
	C397.792023,273.374237 404.059479,271.667877 410.287994,269.851135 
	C415.949463,268.199799 418.588318,261.538788 415.739349,256.474182 
	C412.555878,250.814880 409.425262,245.122849 406.098755,239.548218 
	C404.468872,236.816833 404.661560,234.739731 407.015167,232.524155 
	C410.892944,228.873764 414.683807,225.114471 418.287262,221.195114 
	C420.669708,218.603806 422.825867,218.588638 425.702179,220.361328 
	C431.228394,223.767166 436.886810,226.966187 442.569031,230.108780 
	C447.373260,232.765762 453.805145,230.240494 455.423950,224.979263 
	C457.379364,218.623962 459.146881,212.205734 460.796875,205.763809 
	C461.572601,202.735275 462.952087,201.325058 466.311951,201.498230 
	C471.627747,201.772232 476.985443,201.815674 482.292877,201.464981 
	C485.814758,201.232254 487.446014,202.433380 488.251251,205.783188 
	C489.766876,212.088333 491.496002,218.345627 493.280579,224.581573 
	C494.845978,230.051682 501.298096,232.866547 506.330139,230.158875 
	C512.045715,227.083359 517.694397,223.858795 523.190613,220.409729 
	C526.318542,218.446838 528.528687,218.782608 530.993591,221.467834 
	C534.594055,225.390030 538.415955,229.121994 542.309509,232.757156 
	C544.531921,234.832092 544.742249,236.715103 543.174133,239.299347 
	C539.633972,245.133713 536.273987,251.079025 532.914612,257.020966 
	C530.387573,261.490723 533.185120,268.399048 538.102600,269.772217 
	C544.513367,271.562408 550.932922,273.338043 557.404785,274.885132 
	C560.653809,275.661743 562.260681,277.188019 562.140564,280.696747 
	C561.958313,286.020844 561.976318,291.358978 562.130432,296.684723 
	C562.223633,299.907593 560.822388,301.606567 557.805115,302.384613 
	C551.520447,304.005219 545.259644,305.718567 538.992554,307.406769 
	C532.936646,309.038025 530.129456,315.595612 533.210205,320.977753 
	C536.518982,326.758179 539.810913,332.550018 543.239685,338.259125 
	C544.668823,340.638794 544.534485,342.431335 542.459473,344.400024 
	C538.231689,348.411102 534.131592,352.561829 530.091187,356.763031 
	C528.149902,358.781647 526.453125,358.981628 523.991455,357.459595 
	C518.189026,353.872192 512.245972,350.501831 506.262665,347.220673 
	C501.319244,344.509796 494.881470,347.285736 493.304993,352.769897 
	C491.512390,359.006073 489.791748,365.268890 488.282532,371.578186 
	C487.494690,374.871490 485.874359,376.361572 482.397003,376.225494 
	C477.407349,376.030243 472.395935,375.987671 467.410309,376.225769 
	C463.614594,376.407043 461.606140,375.057831 460.745148,371.258514 
	C459.496979,365.750702 457.527191,360.399292 456.407623,354.871307 
	C455.106079,348.445038 450.697510,346.572449 444.751465,346.131012 
M468.696625,256.213531 
	C452.507019,258.563507 439.392303,274.727295 441.453979,292.485596 
	C443.484497,309.975403 458.856689,322.616089 476.690094,321.766815 
	C494.778687,320.905334 509.516541,303.642273 507.565216,285.601501 
	C505.502289,266.529114 487.670441,252.685776 468.696625,256.213531 
z"/>
<path fill="#D9083C" opacity="1.000000" stroke="none" 
	d="
M469.874390,439.036865 
	C483.825500,438.850372 491.044434,431.635620 491.074585,418.303833 
	C491.093781,409.805817 491.051483,401.307556 491.102570,392.809814 
	C491.118317,390.193207 490.798096,387.438812 494.265533,386.285919 
	C496.068237,385.686523 495.943695,383.507935 496.386688,381.984283 
	C498.105927,376.071411 499.594543,370.091766 501.286072,364.170410 
	C501.703217,362.710083 501.369202,360.725616 503.487640,360.030731 
	C504.904999,361.434448 504.274597,363.175781 504.278168,364.721741 
	C504.319244,382.550964 504.319916,400.380341 504.282532,418.209595 
	C504.239655,438.647614 490.573608,452.269196 469.992401,452.273560 
	C358.850647,452.297058 247.708923,452.298584 136.567184,452.274353 
	C116.216362,452.269928 102.046913,438.507172 102.024857,418.202332 
	C101.919121,320.890961 101.919518,223.579330 102.016129,126.267944 
	C102.037209,105.036263 115.735245,91.696671 136.877182,91.692123 
	C186.865967,91.681374 236.854782,91.674545 286.843445,91.748672 
	C288.984894,91.751846 292.216888,90.419205 293.066711,93.189194 
	C294.010437,96.265320 293.921112,99.770210 293.182190,103.052261 
	C292.924377,104.197311 291.702789,104.274246 290.701416,104.312744 
	C289.037201,104.376732 287.370056,104.380859 285.704132,104.381050 
	C236.215225,104.386894 186.726334,104.385048 137.237427,104.394531 
	C122.983047,104.397263 115.294220,112.019394 115.290466,126.230453 
	C115.264816,223.375290 115.251701,320.520142 115.251274,417.664978 
	C115.251213,431.772949 122.679794,439.056946 136.969849,439.056244 
	C247.777985,439.050812 358.586121,439.041351 469.874390,439.036865 
z"/>
<path fill="#D9083C" opacity="1.000000" stroke="none" 
	d="
M352.677979,139.471436 
	C340.083588,138.192413 328.186523,135.941605 317.002289,130.783279 
	C308.099060,126.676971 302.940857,120.774368 303.452240,109.911316 
	C304.227112,93.452301 304.059326,76.916046 303.499420,60.439548 
	C303.170868,50.771877 307.721313,45.057037 315.644409,41.162682 
	C324.849274,36.638283 334.732117,34.305653 344.823151,32.827858 
	C362.823761,30.191742 380.886505,28.915840 399.061859,30.695114 
	C415.138611,32.268944 431.215271,33.835709 446.130585,40.838417 
	C454.768890,44.894066 459.456085,51.035915 459.166199,61.177891 
	C458.699860,77.493393 458.703339,93.841454 459.163086,110.157303 
	C459.449341,120.316391 454.647827,126.403412 446.068970,130.480850 
	C436.638641,134.962952 426.587006,137.206284 416.354095,138.765991 
	C395.317139,141.972473 374.238464,142.333069 352.677979,139.471436 
M446.627106,73.901588 
	C446.375671,71.507462 444.894226,72.475067 443.727997,72.902634 
	C424.068176,80.110291 403.625641,82.181984 382.867157,82.318581 
	C377.625244,82.353073 376.083496,83.948555 376.035492,89.312958 
	C375.938599,100.136955 375.943085,110.962997 376.035950,121.787086 
	C376.083405,127.317299 377.691284,128.736633 383.316864,128.886093 
	C392.158386,129.120987 400.991119,128.594940 409.728607,127.494461 
	C420.120697,126.185600 430.409607,124.135895 440.106293,119.832283 
	C444.634857,117.822426 447.042908,115.106514 446.826599,109.601257 
	C446.369171,97.961174 446.668518,86.291359 446.627106,73.901588 
M403.673553,68.955452 
	C407.804718,68.520760 411.994965,68.386528 416.054718,67.588470 
	C424.365662,65.954712 432.791443,64.586990 440.460724,60.679394 
	C442.481506,59.649765 445.401306,58.912632 445.442749,56.324787 
	C445.489136,53.428169 442.402710,52.582314 440.227783,51.587006 
	C436.148804,49.720333 431.915894,48.251110 427.518646,47.174141 
	C408.078339,42.412857 388.302002,41.647205 368.470093,42.534431 
	C353.499084,43.204193 338.589355,44.917534 324.462341,50.508945 
	C321.432129,51.708302 316.990814,52.561668 316.937164,56.100990 
	C316.882599,59.703728 321.309418,60.632713 324.356995,61.758522 
	C349.829895,71.168518 376.226227,70.816635 403.673553,68.955452 
z"/>
<path fill="#D9083C" opacity="1.000000" stroke="none" 
	d="
M303.663391,195.792496 
	C303.737061,174.638336 303.482391,153.947922 303.801025,132.616455 
	C308.934296,133.959564 312.517090,135.382294 314.596375,137.803177 
	C319.414551,143.412964 325.844025,145.538071 332.375793,147.273590 
	C353.023285,152.759613 374.135376,153.477478 395.336884,152.356995 
	C408.490448,151.661850 421.429626,149.708984 434.169952,146.051132 
	C441.407898,143.973038 446.024780,138.259949 452.313141,135.000244 
	C453.627045,134.319168 454.751892,133.217682 456.530396,133.255508 
	C459.027039,135.175217 459.045624,138.105911 459.055481,140.872116 
	C459.108215,155.699738 459.041840,170.527817 459.019348,185.355728 
	C459.015717,187.754303 459.013031,190.101501 455.939209,190.815674 
	C453.570068,191.366089 453.159027,193.507660 452.606384,195.400833 
	C451.487305,199.234573 450.526001,203.114212 449.417542,206.951202 
	C447.119476,214.906052 441.607819,217.197296 434.379608,213.197723 
	C431.796021,211.768158 429.285278,210.206909 426.205231,208.389465 
	C429.782288,205.564682 433.643463,205.157990 437.049622,203.838379 
	C445.831451,200.436142 446.658966,199.455017 446.674408,190.072144 
	C446.690857,180.075729 446.692688,170.079269 446.691559,160.082840 
	C446.691193,156.629959 445.849976,154.584961 441.632477,156.125839 
	C423.251068,162.841599 404.039642,164.526627 384.681580,165.116257 
	C376.946655,165.351852 376.041138,166.141403 376.036743,173.783615 
	C376.030884,183.946564 375.972992,194.109863 376.040070,204.272324 
	C376.078583,210.106796 377.613098,211.522934 383.530396,211.687531 
	C391.708618,211.915009 399.818451,210.884125 407.955292,210.358566 
	C409.410950,210.264542 410.877289,209.538193 412.258667,210.600143 
	C410.303406,216.647552 402.024536,222.985458 395.856140,223.404495 
	C372.767487,224.972992 349.977936,223.271774 327.569092,217.313843 
	C321.742401,215.764664 316.143555,213.611359 311.216217,210.056000 
	C306.542847,206.683853 303.270691,202.455139 303.663391,195.792496 
z"/>
<path fill="#D9083C" opacity="1.000000" stroke="none" 
	d="
M376.338745,299.956543 
	C376.491089,303.896729 376.747009,307.399323 371.548950,307.041656 
	C353.446808,305.796112 335.346802,304.470154 318.391937,297.165955 
	C309.230225,293.219055 303.011169,288.679901 303.509155,275.185730 
	C304.116455,258.730774 303.645599,242.236237 303.655914,225.758820 
	C303.657074,223.929535 303.591675,222.077423 303.843658,220.275986 
	C304.318787,216.879990 305.582275,214.832474 309.391418,217.342026 
	C312.119873,219.139618 314.748505,220.743896 317.103302,223.297714 
	C321.230408,227.773666 327.421631,229.163406 333.229187,230.665222 
	C349.618652,234.903503 366.351685,235.966354 383.203400,235.843109 
	C392.475433,235.775299 394.124725,237.085266 397.038574,246.963852 
	C393.011078,248.918076 388.650513,248.014099 384.471985,248.155930 
	C377.229126,248.401718 375.961731,249.478745 375.993469,256.629150 
	C376.056885,270.914032 376.210358,285.198517 376.338745,299.956543 
z"/>
<path fill="#D9083C" opacity="1.000000" stroke="none" 
	d="
M504.277435,177.000031 
	C504.277893,190.945557 504.277893,204.391068 504.277893,218.087463 
	C501.305817,217.265900 501.752502,215.045883 501.305786,213.467346 
	C499.584442,207.384033 498.040771,201.250641 496.393799,195.145935 
	C496.092102,194.027725 495.926544,192.338303 495.173309,191.961380 
	C489.393707,189.069244 491.170685,183.806915 491.135223,179.287872 
	C490.996552,161.626740 491.083588,143.963928 491.056366,126.301788 
	C491.035431,112.722794 485.696045,106.403069 472.262665,104.437752 
	C466.308655,103.566681 469.318024,99.161743 468.766937,96.252098 
	C468.197693,93.246826 469.590271,91.790031 472.922913,91.661156 
	C489.061615,91.037064 504.070038,106.061302 504.231110,123.513802 
	C504.394135,141.174515 504.273376,158.837845 504.277435,177.000031 
z"/>
<path fill="#D9083C" opacity="1.000000" stroke="none" 
	d="
M226.993378,475.928680 
	C229.773438,476.095917 232.165268,475.959320 234.391037,476.502777 
	C238.012451,477.386993 240.849426,480.215485 239.885239,483.670166 
	C238.804077,487.543976 239.604797,490.348358 240.976135,493.794708 
	C242.681488,498.080505 238.994431,502.753296 233.999435,503.237488 
	C230.694550,503.557800 227.306030,503.092743 224.018539,503.496674 
	C218.911652,504.124176 217.640518,501.813660 217.987244,497.199097 
	C218.310959,492.890839 218.067108,488.540192 218.079941,484.208221 
	C218.104034,476.081787 218.241394,475.949280 226.993378,475.928680 
M225.324417,496.540955 
	C227.382462,498.768433 229.944214,498.003113 232.295578,497.469116 
	C233.842545,497.117828 235.075165,495.711823 234.049164,494.059784 
	C232.430298,491.453247 229.600357,492.377777 227.196014,492.358490 
	C224.712723,492.338562 224.761932,494.071930 225.324417,496.540955 
M232.058929,482.190369 
	C231.271393,481.960052 230.480408,481.526001 229.696976,481.539215 
	C227.695908,481.572937 225.337708,481.586365 225.287262,484.352692 
	C225.235840,487.172302 227.641876,486.694427 229.344635,486.592194 
	C231.703751,486.450500 234.369049,486.237427 232.058929,482.190369 
z"/>
<path fill="#D9083C" opacity="1.000000" stroke="none" 
	d="
M159.922791,130.618988 
	C160.049026,122.633347 163.605133,117.743385 169.706955,116.668541 
	C175.307175,115.682045 180.948608,118.736664 183.044983,123.890564 
	C185.619247,130.219345 183.047531,136.811661 176.874725,139.707291 
	C171.102631,142.414932 164.339752,140.097626 161.196152,134.271896 
	C160.653259,133.265793 160.383011,132.112534 159.922791,130.618988 
z"/>
<path fill="#D9083C" opacity="1.000000" stroke="none" 
	d="
M480.390625,162.009857 
	C480.384125,170.309479 480.183411,178.116867 480.445679,185.908661 
	C480.589569,190.182159 478.379242,190.959793 474.941345,190.885361 
	C471.427887,190.809296 468.437592,190.710190 468.578064,185.657745 
	C468.873108,175.043243 468.873505,164.410172 468.601074,153.794815 
	C468.470856,148.720062 471.357025,148.826065 474.960297,148.678116 
	C478.993134,148.512543 480.835602,149.827744 480.418365,154.046646 
	C480.174591,156.511642 480.384003,159.021454 480.390625,162.009857 
z"/>
<path fill="#D9083C" opacity="1.000000" stroke="none" 
	d="
M125.801041,130.596756 
	C125.793167,123.117065 129.043015,118.295143 134.702011,116.892830 
	C140.241867,115.520042 145.688263,117.873489 148.292877,122.765594 
	C151.520172,128.827240 149.555573,136.004150 143.790649,139.212723 
	C137.737366,142.581787 130.474594,140.463364 127.073166,134.276337 
	C126.519882,133.269928 126.253563,132.105743 125.801041,130.596756 
z"/>
<path fill="#D9083C" opacity="1.000000" stroke="none" 
	d="
M370.854218,477.648682 
	C371.102722,485.048889 371.214264,492.040833 371.210815,499.032715 
	C371.209961,500.741272 371.770630,502.997101 369.079315,503.365997 
	C366.877136,503.667877 364.829407,503.515900 363.439392,501.219910 
	C361.209381,497.536407 358.773224,493.977661 355.236725,490.468903 
	C355.236725,493.628326 355.225586,496.787842 355.240631,499.947174 
	C355.250580,502.032318 354.724792,503.529602 352.175079,503.459564 
	C349.837616,503.395386 348.902740,502.207123 348.904694,500.007111 
	C348.910522,493.510132 348.868439,487.012848 348.923828,480.516357 
	C348.939545,478.674011 349.081299,476.727814 351.426208,476.185730 
	C353.874969,475.619629 355.582611,476.615753 356.834961,478.729095 
	C359.119995,482.584900 361.480774,486.395782 364.870728,490.156097 
	C364.870728,486.811310 364.738373,483.459991 364.903656,480.123383 
	C365.118164,475.792572 366.230316,475.296143 370.854218,477.648682 
z"/>
<path fill="#D9083C" opacity="1.000000" stroke="none" 
	d="
M375.265503,479.595917 
	C375.587311,478.195007 375.748047,477.180634 376.715790,476.613708 
	C380.971313,474.120789 392.945862,476.318787 395.856628,480.124084 
	C400.015472,485.561005 399.593781,496.285187 395.050232,500.631683 
	C392.534271,503.038513 379.642242,504.721008 376.789642,502.982513 
	C375.097870,501.951447 375.159790,500.155975 375.149078,498.530548 
	C375.108459,492.366272 375.171783,486.201294 375.265503,479.595917 
M382.569427,496.592285 
	C385.838379,498.736359 388.861267,498.578003 391.004242,495.133240 
	C393.073914,491.806335 391.854248,484.279938 389.283295,482.730438 
	C385.711731,480.577881 382.209747,482.304352 382.091095,486.404724 
	C382.000671,489.530762 382.206726,492.665375 382.569427,496.592285 
z"/>
<path fill="#D9083C" opacity="1.000000" stroke="none" 
	d="
M250.291290,499.416962 
	C249.199020,503.610107 246.529419,504.011658 242.972687,503.106476 
	C242.911255,502.559845 242.611740,501.858093 242.808090,501.346710 
	C245.667892,493.899017 248.617706,486.485901 251.488037,479.042175 
	C252.233109,477.110016 253.493317,476.085602 255.569336,475.980408 
	C257.652039,475.874847 259.128723,476.731171 259.901642,478.645844 
	C263.062531,486.475555 266.190216,494.318665 269.405823,502.345825 
	C266.384308,503.899567 264.114929,504.466156 262.126740,501.506592 
	C259.343903,497.364044 255.386627,496.604584 250.291290,499.416962 
z"/>
<path fill="#D9083C" opacity="1.000000" stroke="none" 
	d="
M297.832275,489.007385 
	C297.835754,485.517212 297.830719,482.521820 297.855988,479.526703 
	C297.874268,477.358765 298.845856,476.063721 301.157715,476.063080 
	C303.534302,476.062408 304.336914,477.462799 304.327454,479.603363 
	C304.318909,481.544128 304.325653,483.484955 304.325653,485.905975 
	C310.264282,482.862030 312.054718,473.517914 320.961456,476.825134 
	C320.023499,480.108551 317.734894,481.920380 315.753571,483.771698 
	C313.138153,486.215576 313.272766,488.231781 315.147186,491.102753 
	C317.548615,494.780975 320.646820,498.128784 321.983459,502.696594 
	C312.170593,506.301605 312.777649,495.627563 307.905823,492.773438 
	C304.652344,493.902954 304.306458,496.442871 304.329010,499.232819 
	C304.346008,501.335419 304.156860,503.287628 301.255829,503.330719 
	C298.115784,503.377258 297.847961,501.297821 297.832275,498.987823 
	C297.810791,495.826111 297.833160,492.664124 297.832275,489.007385 
z"/>
<path fill="#D9083C" opacity="1.000000" stroke="none" 
	d="
M338.054077,486.643372 
	C339.505524,486.668976 340.505310,486.669586 341.500885,486.734650 
	C343.019806,486.833862 344.027222,487.510803 344.042419,489.183136 
	C344.059082,491.017883 343.036499,491.980774 341.309784,492.085266 
	C338.985992,492.225891 336.652527,492.206879 334.323212,492.256744 
	C332.634369,492.292877 331.404144,492.850616 331.308319,494.799744 
	C331.202484,496.953033 332.373962,497.802277 334.349884,497.841553 
	C337.011993,497.894501 339.677338,497.867279 342.335907,497.990448 
	C344.001373,498.067596 345.184387,498.820953 345.205017,500.739960 
	C345.226227,502.717499 344.027435,503.343170 342.329132,503.350311 
	C337.335022,503.371307 332.340698,503.343384 327.346527,503.355530 
	C325.210419,503.360718 324.428345,502.238251 324.452789,500.212677 
	C324.535187,493.389130 324.581146,486.565033 324.604187,479.740997 
	C324.611481,477.586670 325.447937,476.127747 327.732697,476.082764 
	C332.390869,475.991089 337.052246,475.972290 341.710785,476.035858 
	C343.575287,476.061279 344.941742,476.980255 344.958008,479.057678 
	C344.975555,481.295410 343.348785,481.760742 341.573639,481.842682 
	C339.579498,481.934692 337.575439,481.829590 335.583435,481.944489 
	C333.820648,482.046143 331.448120,481.734467 331.451569,484.367889 
	C331.455139,487.110809 333.881256,486.480804 335.603485,486.633667 
	C336.264374,486.692352 336.934601,486.645813 338.054077,486.643372 
z"/>
<path fill="#D9083C" opacity="1.000000" stroke="none" 
	d="
M293.834747,495.279175 
	C291.888336,502.289459 286.268402,505.436157 279.752808,503.589081 
	C272.524078,501.539886 269.095337,494.693298 270.906769,485.925262 
	C272.343964,478.968872 278.152649,474.809143 285.243042,475.852844 
	C289.705353,476.509766 292.936035,478.754456 293.905426,483.544159 
	C291.463745,485.658325 289.477203,485.690887 286.884613,483.506104 
	C282.421967,479.745392 278.190796,481.581726 277.380890,487.382172 
	C277.037384,489.842316 276.874786,492.376892 278.025818,494.732239 
	C279.965118,498.700653 284.311279,499.575775 286.820068,496.043030 
	C289.054565,492.896576 290.969116,492.701508 293.834747,495.279175 
z"/>
<path fill="#D9083C" opacity="1.000000" stroke="none" 
	d="
M429.486206,184.480331 
	C433.156921,181.435074 436.702423,181.253052 440.265472,183.800888 
	C443.005829,185.760452 443.764282,188.594360 443.103668,191.763458 
	C442.427795,195.005646 440.288055,196.962738 437.099213,197.733154 
	C433.833099,198.522278 431.165588,197.356201 429.139099,194.851746 
	C426.448364,191.526443 426.884064,188.105331 429.486206,184.480331 
z"/>
<path fill="#D9083C" opacity="1.000000" stroke="none" 
	d="
M427.584930,105.545753 
	C429.164917,101.033752 432.039856,99.000923 436.505890,99.625130 
	C440.056671,100.121407 442.161713,102.441406 443.041199,105.701775 
	C443.974060,109.160057 442.475922,111.922882 439.644562,113.905411 
	C437.097900,115.688599 434.274750,115.752052 431.594604,114.324318 
	C428.278076,112.557594 427.128937,109.563377 427.584930,105.545753 
z"/>
</svg>