<svg version="1.1" id="Layer_1" xmlns="http://www.w3.org/2000/svg" xmlns:xlink="http://www.w3.org/1999/xlink" x="0px" y="0px"
	 width="100%" viewBox="0 0 752 486" enable-background="new 0 0 752 486" xml:space="preserve">
<path fill="none" opacity="1.000000" stroke="none" 
	d="
M474.000000,487.000000 
	C316.000000,487.000000 158.500000,487.000000 1.000000,487.000000 
	C1.000000,325.000000 1.000000,163.000000 1.000000,1.000000 
	C251.666672,1.000000 502.333344,1.000000 753.000000,1.000000 
	C753.000000,163.000000 753.000000,325.000000 753.000000,487.000000 
	C660.166687,487.000000 567.333313,487.000000 474.000000,487.000000 
M505.482635,257.283539 
	C506.091003,257.520416 506.699341,257.757324 507.307709,257.994202 
	C507.131866,257.178223 506.956024,256.362244 506.780121,255.546249 
	C506.189301,256.033386 505.598511,256.520508 504.276703,257.002106 
	C503.334015,257.238770 502.391357,257.475464 501.448669,257.712128 
	C501.685150,258.178619 501.921600,258.645111 502.158081,259.111633 
	C503.103027,258.405182 504.048004,257.698730 505.482635,257.283539 
M492.158234,255.330597 
	C492.211578,254.895111 492.264923,254.459625 493.047272,254.061447 
	C497.201935,257.638092 500.741425,254.816803 503.187256,253.841965 
	C501.896698,250.643799 500.772461,247.857803 499.648224,245.071838 
	C501.493469,245.442993 503.338715,245.814148 506.138367,246.377274 
	C506.626862,243.086777 507.242371,239.402023 507.613281,235.692825 
	C507.648468,235.341095 506.186279,234.580948 505.354767,234.462250 
	C504.127686,234.287094 502.842712,234.517776 501.502075,234.579315 
	C502.150635,239.315247 499.034515,238.115845 496.601196,237.635818 
	C495.034973,237.326904 493.556702,236.571899 491.832367,235.096985 
	C491.859253,186.431808 491.893494,137.766617 491.908722,89.101440 
	C491.913544,73.754738 483.064484,64.908409 467.747070,64.908134 
	C346.249420,64.905907 224.751755,64.906380 103.254105,64.910042 
	C86.887070,64.910538 78.403976,73.423325 78.402092,89.884102 
	C78.393547,164.216003 78.393631,238.547897 78.401947,312.879791 
	C78.403671,328.321930 87.160904,337.133606 102.480118,337.136139 
	C146.645935,337.143402 190.811752,337.139587 234.977570,337.140167 
	C236.914490,337.140198 238.851395,337.140167 240.979614,337.140167 
	C240.979614,348.912689 240.979614,360.021942 240.979614,371.395752 
	C239.374130,371.617432 237.917374,371.792908 236.469208,372.022491 
	C218.543854,374.864166 200.594543,377.566132 182.706131,380.624298 
	C173.955658,382.120239 174.007187,382.421753 174.007187,391.523529 
	C174.007187,399.948761 174.007202,408.373993 174.007202,416.813934 
	C247.850540,416.813934 320.961731,416.813934 394.651031,416.813934 
	C394.651031,405.976929 394.753113,395.353363 394.491119,384.738800 
	C394.465271,383.692230 392.332672,382.039246 390.969360,381.784790 
	C375.421356,378.882538 359.847626,376.108734 344.247437,373.499939 
	C338.373505,372.517639 332.413147,372.052002 326.467377,371.347900 
	C326.467377,362.979980 326.467377,355.009521 327.161713,346.777802 
	C327.455139,343.664246 327.748596,340.550659 328.939972,337.175354 
	C374.581818,337.168640 420.224060,337.062439 465.865051,337.254059 
	C473.383026,337.285614 479.997040,335.775055 486.506378,330.877472 
	C486.937592,330.089386 487.368805,329.301300 487.974976,327.837524 
	C489.287842,322.971405 491.580658,318.136383 491.736176,313.233551 
	C492.277344,296.173706 492.077911,279.090393 492.900604,262.022064 
	C493.823639,261.298279 494.746704,260.574524 495.669769,259.850769 
	C494.548676,258.559387 493.427582,257.268005 492.158234,255.330597 
M665.032837,75.345734 
	C664.269348,74.608841 663.505920,73.871948 662.153503,72.833611 
	C658.130249,70.378006 654.107056,67.922394 649.998291,64.944771 
	C649.334412,64.952339 648.670532,64.959908 647.071167,65.050041 
	C614.043823,65.017952 581.016541,64.985863 547.740295,64.497498 
	C547.131348,64.821762 546.522400,65.146034 545.301575,65.752090 
	C544.854492,65.775002 544.407410,65.797913 543.661011,65.395966 
	C543.084534,65.808777 542.508057,66.221588 541.356079,67.042923 
	C534.976624,69.902031 530.641357,74.796021 526.904846,81.082954 
	C526.572876,83.049103 526.240967,85.015259 526.021667,87.915718 
	C525.949829,89.745201 525.815430,91.574684 525.815247,93.404175 
	C525.806213,199.478653 525.807251,305.553131 525.819946,411.627625 
	C525.820190,413.368927 525.976624,415.110229 526.068481,417.024078 
	C573.826355,417.024078 620.939453,417.024078 668.862122,416.916168 
	C669.229736,415.216034 669.918274,413.516052 669.919067,411.815735 
	C669.969666,304.983521 669.970764,198.151291 669.907837,91.319069 
	C669.906738,89.513931 669.066040,87.709282 668.291504,85.224754 
	C668.199768,84.481842 668.108032,83.738930 668.484131,82.725937 
	C668.101318,82.129456 667.718506,81.532974 666.952271,80.375595 
	C666.285461,78.948082 665.618652,77.520569 665.032837,75.345734 
M520.208557,261.528168 
	C520.600952,258.473694 520.993347,255.419220 521.508850,251.406494 
	C518.576965,251.592468 516.164307,251.745514 513.751404,251.898560 
	C513.751404,255.255112 513.751404,257.836792 513.751404,260.670837 
	C515.621948,261.046021 517.540527,261.430817 520.208557,261.528168 
z"/>
<path fill="#D9083C" opacity="1.000000" stroke="none" 
	d="
M492.160034,262.015991 
	C492.077911,279.090393 492.277344,296.173706 491.736176,313.233551 
	C491.580658,318.136383 489.287842,322.971405 487.584656,328.302704 
	C486.709137,329.474243 486.223938,330.180603 485.738739,330.886963 
	C479.997040,335.775055 473.383026,337.285614 465.865051,337.254059 
	C420.224060,337.062439 374.581818,337.168640 328.101929,337.221558 
	C326.998383,340.524841 326.732880,343.781952 326.467377,347.039032 
	C326.467377,355.009521 326.467377,362.979980 326.467377,371.347900 
	C332.413147,372.052002 338.373505,372.517639 344.247437,373.499939 
	C359.847626,376.108734 375.421356,378.882538 390.969360,381.784790 
	C392.332672,382.039246 394.465271,383.692230 394.491119,384.738800 
	C394.753113,395.353363 394.651031,405.976929 394.651031,416.813934 
	C320.961731,416.813934 247.850540,416.813934 174.007202,416.813934 
	C174.007202,408.373993 174.007187,399.948761 174.007187,391.523529 
	C174.007187,382.421753 173.955658,382.120239 182.706131,380.624298 
	C200.594543,377.566132 218.543854,374.864166 236.469208,372.022491 
	C237.917374,371.792908 239.374130,371.617432 240.979614,371.395752 
	C240.979614,360.021942 240.979614,348.912689 240.979614,337.140167 
	C238.851395,337.140167 236.914490,337.140198 234.977570,337.140167 
	C190.811752,337.139587 146.645935,337.143402 102.480118,337.136139 
	C87.160904,337.133606 78.403671,328.321930 78.401947,312.879791 
	C78.393631,238.547897 78.393547,164.216003 78.402092,89.884102 
	C78.403976,73.423325 86.887070,64.910538 103.254105,64.910042 
	C224.751755,64.906380 346.249420,64.905907 467.747070,64.908134 
	C483.064484,64.908409 491.913544,73.754738 491.908722,89.101440 
	C491.893494,137.766617 491.859253,186.431808 491.844330,235.403290 
	C491.856293,235.709579 491.518829,235.827591 491.233276,235.898758 
	C490.639099,236.654236 490.330444,237.338562 489.671509,238.054718 
	C488.889374,239.066605 488.457581,240.046631 487.732239,241.255493 
	C485.094025,248.336838 485.799561,252.017899 490.037872,255.277710 
	C490.556549,256.086639 491.062866,256.598724 491.662201,257.514404 
	C491.890167,259.284027 492.025085,260.649994 492.160034,262.015991 
M465.870636,241.957535 
	C470.995270,240.366684 471.914276,240.945007 472.006042,245.968903 
	C472.072845,249.626114 471.631989,253.355545 472.243683,256.910614 
	C472.509033,258.452789 474.851318,259.637604 476.250244,260.984741 
	C477.492371,259.647644 479.503418,258.465637 479.811188,256.940033 
	C480.391693,254.062592 479.998322,250.987289 479.997589,247.994247 
	C479.994690,236.079239 476.816071,232.907364 464.716339,232.098450 
	C464.716339,183.539093 464.716339,134.979736 464.716339,86.538124 
	C344.061798,86.538124 224.330200,86.538124 104.475800,86.538124 
	C104.475800,161.467331 104.475800,236.044312 104.475800,310.788818 
	C224.572647,310.788818 344.401031,310.788818 464.667572,310.788818 
	C464.667572,308.408234 464.655884,306.438904 464.669342,304.469727 
	C464.811859,283.652679 464.958374,262.835632 465.870636,241.957535 
M281.620972,69.959541 
	C278.254364,72.520233 277.783081,75.770950 280.083801,79.081696 
	C282.192505,82.116096 285.418640,82.447594 288.479553,80.643845 
	C291.399200,78.923363 292.479218,76.000984 290.966827,72.906685 
	C289.238953,69.371529 286.358093,67.745033 281.620972,69.959541 
M454.971436,328.077728 
	C454.671967,322.114166 450.619232,319.015869 446.498444,321.891479 
	C444.988739,322.945038 443.439301,325.540497 443.708649,327.126862 
	C444.022522,328.975067 446.000946,331.203552 447.810364,331.983673 
	C450.719208,333.237854 453.298950,331.784607 454.971436,328.077728 
z"/>
<path fill="#D9083C" opacity="1.000000" stroke="none" 
	d="
M547.989197,64.953781 
	C581.016541,64.985863 614.043823,65.017952 647.743774,65.215363 
	C648.972168,65.409393 649.528015,65.438095 650.083801,65.466797 
	C654.107056,67.922394 658.130249,70.378006 662.522705,73.294540 
	C663.578552,74.534676 664.265198,75.313873 664.951843,76.093063 
	C665.618652,77.520569 666.285461,78.948082 667.075073,80.942223 
	C667.470642,82.004578 667.743469,82.500298 668.016296,82.996017 
	C668.108032,83.738930 668.199768,84.481842 668.349243,86.028389 
	C668.410034,195.242126 668.414551,303.652252 668.400879,412.062347 
	C668.400635,413.716248 668.173706,415.370178 668.052490,417.024078 
	C620.939453,417.024078 573.826355,417.024078 526.068481,417.024078 
	C525.976624,415.110229 525.820190,413.368927 525.819946,411.627625 
	C525.807251,305.553131 525.806213,199.478653 525.815247,93.404175 
	C525.815430,91.574684 525.949829,89.745201 526.169556,87.166168 
	C526.725525,84.584457 527.133667,82.752289 527.541748,80.920120 
	C530.641357,74.796021 534.976624,69.902031 541.932678,66.876144 
	C542.992920,66.413185 543.476624,66.116997 543.960327,65.820816 
	C544.407410,65.797913 544.854492,65.775002 545.886841,65.688278 
	C546.977844,65.400902 547.483521,65.177345 547.989197,64.953781 
M652.733337,147.147507 
	C651.041138,146.615845 649.350220,145.625290 647.656494,145.620361 
	C614.878967,145.525253 582.101135,145.545395 549.323364,145.541870 
	C547.707397,145.541702 546.091370,145.541840 544.360901,145.541840 
	C544.360901,158.724960 544.360901,171.417114 544.360901,184.268921 
	C545.618225,184.362686 546.602661,184.499832 547.587158,184.500275 
	C581.196716,184.515625 614.806335,184.525604 648.415894,184.496704 
	C649.879333,184.495453 651.342529,184.119934 653.474548,184.135223 
	C653.983276,183.578873 654.931030,183.026230 654.935791,182.465622 
	C655.023560,172.071121 655.060181,161.674759 654.907898,151.281708 
	C654.891724,150.178741 653.628967,149.094025 652.733337,147.147507 
M653.727478,133.830124 
	C654.141235,133.187408 654.909546,132.547897 654.915466,131.901459 
	C655.000610,122.526649 655.041260,113.150047 654.901611,103.776733 
	C654.887695,102.841942 653.627869,101.925713 652.739441,100.236031 
	C652.946106,96.455254 650.088989,97.576912 648.210083,97.573868 
	C614.923950,97.519981 581.637695,97.526314 548.351501,97.535706 
	C547.052063,97.536072 545.752686,97.696213 544.481934,97.780014 
	C544.481934,110.884842 544.481934,123.732368 544.481934,136.761551 
	C579.682068,136.761551 614.455505,136.789963 649.228149,136.645172 
	C650.463196,136.640045 651.691101,134.919586 653.727478,133.830124 
M545.031128,235.505966 
	C580.772766,235.505966 616.514404,235.505966 652.398193,235.505966 
	C652.398193,222.339127 652.398193,209.635437 652.398193,196.759293 
	C616.159546,196.759293 580.279785,196.759293 544.311096,196.759293 
	C544.311096,209.689575 544.311096,222.311127 545.031128,235.505966 
M613.866333,267.238708 
	C613.695801,265.598114 613.735352,263.901917 613.318176,262.326630 
	C611.572998,255.737091 607.204529,251.858093 600.542175,250.657440 
	C594.693298,249.603363 588.172729,252.530731 585.125183,257.613739 
	C581.651184,263.407898 581.560486,269.371399 585.399231,274.962860 
	C588.962219,280.152649 594.225647,282.679504 600.460815,281.621307 
	C607.941528,280.351715 612.367249,275.540100 613.866333,267.238708 
M596.191223,303.443970 
	C592.813354,304.813202 590.807068,307.487549 592.012390,310.850952 
	C592.760071,312.937439 595.148010,315.131317 597.285156,315.867218 
	C600.777893,317.069916 604.353638,314.091400 604.802246,310.503357 
	C605.339050,306.209717 602.489502,303.572540 596.191223,303.443970 
z"/>
<path fill="#D8D8D8" opacity="1.000000" stroke="none" 
	d="
M668.457336,416.970123 
	C668.173706,415.370178 668.400635,413.716248 668.400879,412.062347 
	C668.414551,303.652252 668.410034,195.242126 668.512085,86.368210 
	C669.066040,87.709282 669.906738,89.513931 669.907837,91.319069 
	C669.970764,198.151291 669.969666,304.983521 669.919067,411.815735 
	C669.918274,413.516052 669.229736,415.216034 668.457336,416.970123 
z"/>
<path fill="none" opacity="1.000000" stroke="none" 
	d="
M491.947662,235.863205 
	C493.556702,236.571899 495.034973,237.326904 496.601196,237.635818 
	C499.034515,238.115845 502.150635,239.315247 501.502075,234.579315 
	C502.842712,234.517776 504.127686,234.287094 505.354767,234.462250 
	C506.186279,234.580948 507.648468,235.341095 507.613281,235.692825 
	C507.242371,239.402023 506.626862,243.086777 506.138367,246.377274 
	C503.338715,245.814148 501.493469,245.442993 499.648224,245.071838 
	C500.772461,247.857803 501.896698,250.643799 503.187256,253.841965 
	C500.741425,254.816803 497.201935,257.638092 492.546326,253.773102 
	C491.942413,253.311554 491.839508,253.138336 491.806366,252.506165 
	C491.804871,247.396454 491.733551,242.745697 491.775085,237.716248 
	C491.764923,236.834229 491.641876,236.330917 491.518829,235.827591 
	C491.518829,235.827591 491.856293,235.709579 491.947662,235.863205 
z"/>
<path fill="#D8D8D8" opacity="1.000000" stroke="none" 
	d="
M519.833862,261.671906 
	C517.540527,261.430817 515.621948,261.046021 513.751404,260.670837 
	C513.751404,257.836792 513.751404,255.255112 513.751404,251.898560 
	C516.164307,251.745514 518.576965,251.592468 521.508850,251.406494 
	C520.993347,255.419220 520.600952,258.473694 519.833862,261.671906 
M518.516724,260.380157 
	C518.516724,260.380157 518.419189,260.545593 518.419189,260.545593 
	C518.419189,260.545593 518.612732,260.524017 518.516724,260.380157 
z"/>
<path fill="none" opacity="1.000000" stroke="none" 
	d="
M326.814545,346.908417 
	C326.732880,343.781952 326.998383,340.524841 327.652954,337.352417 
	C327.748596,340.550659 327.455139,343.664246 326.814545,346.908417 
z"/>
<path fill="none" opacity="1.000000" stroke="none" 
	d="
M492.530334,262.019043 
	C492.025085,260.649994 491.890167,259.284027 491.861206,257.240417 
	C492.080292,256.367432 492.193390,256.172058 492.306488,255.976639 
	C493.427582,257.268005 494.548676,258.559387 495.669769,259.850769 
	C494.746704,260.574524 493.823639,261.298279 492.530334,262.019043 
z"/>
<path fill="#D8D8D8" opacity="1.000000" stroke="none" 
	d="
M527.223267,81.001541 
	C527.133667,82.752289 526.725525,84.584457 526.113220,86.699020 
	C526.240967,85.015259 526.572876,83.049103 527.223267,81.001541 
z"/>
<path fill="none" opacity="1.000000" stroke="none" 
	d="
M505.007690,257.007690 
	C505.598511,256.520508 506.189301,256.033386 506.780151,255.546265 
	C506.956024,256.362244 507.131866,257.178223 507.307709,257.994202 
	C506.699341,257.757324 506.091003,257.520416 505.241333,257.141785 
	C505.000000,257.000000 505.007721,257.007690 505.007690,257.007690 
z"/>
<path fill="none" opacity="1.000000" stroke="none" 
	d="
M504.996490,256.996155 
	C504.048004,257.698730 503.103027,258.405182 502.158081,259.111633 
	C501.921600,258.645111 501.685150,258.178619 501.448669,257.712128 
	C502.391357,257.475464 503.334015,257.238770 504.642212,257.004883 
	C505.007721,257.007690 505.000000,257.000000 504.996490,256.996155 
z"/>
<path fill="#434343" opacity="1.000000" stroke="none" 
	d="
M492.232361,255.653625 
	C492.193390,256.172058 492.080292,256.367432 491.768188,256.836823 
	C491.062866,256.598724 490.556549,256.086639 490.024292,255.291107 
	C489.998322,255.007675 489.976288,255.038467 490.220886,254.899048 
	C490.889160,254.161453 491.312866,253.563293 491.736572,252.965134 
	C491.839508,253.138336 491.942413,253.311554 492.181824,253.754456 
	C492.264923,254.459625 492.211578,254.895111 492.232361,255.653625 
z"/>
<path fill="#D8D8D8" opacity="1.000000" stroke="none" 
	d="
M664.992310,75.719406 
	C664.265198,75.313873 663.578552,74.534676 662.817139,73.445267 
	C663.505920,73.871948 664.269348,74.608841 664.992310,75.719406 
z"/>
<path fill="#D8D8D8" opacity="1.000000" stroke="none" 
	d="
M547.864746,64.725647 
	C547.483521,65.177345 546.977844,65.400902 546.192810,65.547379 
	C546.522400,65.146034 547.131348,64.821762 547.864746,64.725647 
z"/>
<path fill="none" opacity="1.000000" stroke="none" 
	d="
M486.122559,330.882202 
	C486.223938,330.180603 486.709137,329.474243 487.497162,328.640564 
	C487.368805,329.301300 486.937592,330.089386 486.122559,330.882202 
z"/>
<path fill="#D8D8D8" opacity="1.000000" stroke="none" 
	d="
M650.041016,65.205788 
	C649.528015,65.438095 648.972168,65.409393 648.211548,65.174088 
	C648.670532,64.959908 649.334412,64.952339 650.041016,65.205788 
z"/>
<path fill="#D8D8D8" opacity="1.000000" stroke="none" 
	d="
M543.810669,65.608383 
	C543.476624,66.116997 542.992920,66.413185 542.220459,66.671883 
	C542.508057,66.221588 543.084534,65.808777 543.810669,65.608383 
z"/>
<path fill="#D8D8D8" opacity="1.000000" stroke="none" 
	d="
M668.250244,82.860977 
	C667.743469,82.500298 667.470642,82.004578 667.266724,81.222672 
	C667.718506,81.532974 668.101318,82.129456 668.250244,82.860977 
z"/>
<path fill="none" opacity="1.000000" stroke="none" 
	d="
M465.103821,242.018570 
	C464.958374,262.835632 464.811859,283.652679 464.669342,304.469727 
	C464.655884,306.438904 464.667572,308.408234 464.667572,310.788818 
	C344.401031,310.788818 224.572647,310.788818 104.475800,310.788818 
	C104.475800,236.044312 104.475800,161.467331 104.475800,86.538124 
	C224.330200,86.538124 344.061798,86.538124 464.716339,86.538124 
	C464.716339,134.979736 464.716339,183.539093 464.693329,232.872101 
	C464.784515,234.098022 464.898712,234.550278 464.875580,235.366837 
	C464.786224,236.496048 464.834198,237.260956 464.744598,238.416260 
	C464.772614,239.877289 464.938232,240.947922 465.103821,242.018570 
M423.546112,213.622543 
	C425.338043,211.386887 427.130005,209.151215 428.921967,206.915543 
	C428.488525,206.597366 428.055084,206.279175 427.621643,205.960999 
	C424.029175,207.138885 422.928406,210.140656 422.426910,214.531570 
	C422.297546,216.638138 422.168213,218.744720 422.038879,220.851288 
	C422.360870,220.858490 422.682892,220.865692 423.004883,220.872894 
	C423.004883,218.583588 423.004883,216.294281 423.546112,213.622543 
M357.398956,231.957031 
	C354.548309,231.790848 351.634521,231.178284 348.862915,231.570526 
	C345.331299,232.070343 340.922760,232.350311 338.639526,234.543839 
	C332.450806,240.489395 333.901367,248.774750 334.067993,256.423859 
	C334.143250,259.878296 336.259277,262.037231 339.833374,261.918610 
	C343.285187,261.804016 344.077667,259.339386 344.016449,256.325470 
	C343.945374,252.827835 343.733521,249.295258 344.144470,245.844727 
	C344.303680,244.507874 346.000732,243.354172 346.997253,242.117035 
	C347.663422,243.393173 348.826294,244.639908 348.903961,245.950897 
	C349.151550,250.130615 348.995728,254.334213 348.995728,259.500214 
	C350.580444,258.026367 351.140442,257.505554 351.732422,256.954987 
	C352.006866,258.603394 352.266754,260.164246 352.551758,261.875977 
	C356.447937,261.604095 357.917786,259.571228 357.984467,256.318054 
	C358.052704,252.986938 357.794067,249.633698 358.103851,246.330032 
	C358.239319,244.885498 359.432953,243.540192 360.146057,242.149826 
	C360.763550,243.469955 361.813385,244.758072 361.914062,246.116486 
	C362.171967,249.596817 361.307037,253.311340 362.242096,256.541046 
	C362.944885,258.968475 365.742126,260.789490 367.606964,262.880493 
	C369.071991,260.745819 371.411621,258.760956 371.808624,256.443329 
	C372.501740,252.396652 372.269684,248.123505 371.936584,243.984589 
	C371.406464,237.397797 366.422028,228.947327 357.398956,231.957031 
M251.002335,246.210846 
	C251.188736,239.422485 251.716766,232.615479 251.348206,225.857391 
	C251.241104,223.893433 248.569611,222.069321 247.073639,220.181107 
	C245.400711,221.675049 242.942490,222.878677 242.255463,224.737106 
	C241.413834,227.013702 242.054871,229.838425 242.054871,232.598007 
	C234.301834,230.671356 230.036362,232.096069 226.024261,237.519821 
	C222.302872,242.550537 221.964767,249.290741 225.180923,254.332413 
	C229.803070,261.578156 233.220779,263.067413 241.347366,261.330994 
	C241.087921,260.372437 240.829193,259.416534 240.810577,259.347778 
	C243.496933,258.466919 246.754349,258.393066 247.747299,256.856171 
	C249.544708,254.074173 249.991425,250.419510 251.002335,246.210846 
M321.108185,232.042709 
	C315.592163,229.141022 311.105865,232.237717 306.953583,235.041458 
	C305.668884,235.908890 305.887848,239.003189 305.512695,240.661118 
	C304.341370,242.003708 302.506744,243.159882 302.179504,244.647629 
	C300.853149,250.677811 304.126556,255.506790 308.118439,259.108307 
	C310.721222,261.456573 314.658875,263.838135 318.987915,260.821503 
	C319.941772,260.156830 322.107544,260.757874 323.510529,261.302948 
	C327.207092,262.739075 329.534546,261.636047 329.912689,257.783752 
	C330.276001,254.082825 329.867889,250.313293 330.032288,246.584213 
	C330.320648,240.043289 327.199066,235.584930 321.108185,232.042709 
M282.446045,261.659515 
	C286.929626,261.772705 291.412903,261.900085 295.896881,261.994263 
	C299.101135,262.061584 300.813019,260.595276 301.023132,257.266022 
	C301.245270,253.746490 299.086578,252.576416 296.238281,252.065811 
	C294.571503,251.767014 292.857056,251.734177 291.164032,251.581696 
	C290.953613,251.114365 290.743195,250.647034 290.532745,250.179688 
	C292.771057,247.868347 294.999420,245.547272 297.250366,243.248322 
	C299.659576,240.787704 299.687561,238.360947 297.328247,235.821259 
	C293.766998,231.987732 289.143921,229.905838 284.314514,231.316101 
	C279.552368,232.706741 275.555878,235.122467 274.596466,241.663025 
	C273.155273,251.488037 274.196808,256.658081 282.446045,261.659515 
M425.960480,248.561188 
	C424.475616,247.374680 422.990784,246.188187 420.902771,244.519699 
	C418.723114,244.878143 415.436981,245.163589 415.782806,249.765930 
	C415.824890,250.326248 414.544373,250.985947 413.876801,251.599594 
	C413.278503,250.900513 412.234467,250.243179 412.164307,249.494614 
	C411.941559,247.117111 412.081909,244.705582 412.081909,241.999008 
	C415.131989,241.999008 417.285583,242.015350 419.438843,241.995163 
	C422.673492,241.964844 426.291229,240.830338 425.645264,237.448090 
	C425.176483,234.993561 421.706421,232.990158 419.326935,231.096863 
	C418.611511,230.527649 416.950623,231.311127 415.924438,230.930862 
	C414.249573,230.310211 412.753845,229.217178 411.157654,228.370392 
	C409.111298,227.284790 407.040253,226.245667 404.979858,225.186508 
	C403.986725,227.140503 402.277405,229.044586 402.137146,231.057999 
	C401.744476,236.694214 401.996735,242.375580 402.000854,248.039139 
	C402.008636,258.707947 406.608093,262.828308 417.309784,261.610718 
	C417.455566,260.490692 417.605652,259.337738 417.746399,258.256470 
	C419.520081,258.337097 420.899017,258.399780 422.639221,258.478882 
	C422.469513,256.550201 422.347443,255.162811 422.190094,253.374191 
	C423.562439,253.826263 424.530823,254.145264 425.998840,254.628830 
	C425.998840,252.563293 425.998840,250.922134 425.960480,248.561188 
M430.941162,227.434021 
	C430.633575,237.240295 430.111542,247.048965 430.220947,256.850586 
	C430.240082,258.565063 432.857971,261.600037 434.373291,261.662689 
	C437.373901,261.786743 440.162750,259.913147 439.979248,256.074127 
	C439.623505,248.632767 439.526794,241.150879 438.594421,233.777893 
	C438.172791,230.443573 438.697327,229.663284 441.874054,228.757782 
	C444.167847,228.103943 447.848694,224.710831 447.503571,223.678070 
	C445.692810,218.259552 445.709473,211.676453 438.485016,209.072174 
	C433.067352,207.119217 427.791534,209.399414 426.982269,215.199646 
	C426.345490,219.763458 427.452026,223.589386 430.941162,227.434021 
M381.998779,242.855270 
	C381.998779,245.321442 381.998779,247.787613 381.998779,250.286392 
	C380.328003,250.819778 379.070129,251.167740 377.851379,251.620895 
	C374.726013,252.782974 373.472595,255.096985 374.071869,258.317413 
	C374.707642,261.733856 377.281708,262.075012 380.158600,262.020813 
	C385.363129,261.922791 389.704285,258.659485 390.913666,253.356323 
	C391.714050,249.846695 392.013367,246.222778 392.573120,242.403412 
	C393.511078,242.268906 394.739197,242.458008 395.370850,241.931519 
	C397.050171,240.531860 399.167236,239.069183 399.834503,237.180801 
	C400.845551,234.319366 399.355621,232.322571 396.071259,231.458420 
	C389.764557,229.799072 383.730103,234.156143 381.998779,242.855270 
M262.259277,259.838531 
	C266.452911,256.364136 264.803314,251.574966 264.920197,247.268677 
	C264.996674,244.449997 265.074158,242.236572 268.294250,241.043533 
	C271.368958,239.904358 272.093506,236.756790 270.393799,234.537811 
	C269.109467,232.861099 265.954651,231.474121 263.886475,231.765030 
	C258.650818,232.501511 254.551178,237.383530 254.119644,242.822754 
	C253.753525,247.437653 253.786652,252.118515 254.083481,256.741913 
	C254.369537,261.197845 258.092712,262.850464 262.259277,259.838531 
M432.223175,205.836716 
	C435.636292,206.292572 439.049438,206.748413 442.676178,207.232788 
	C438.202179,203.639618 434.994507,203.142258 432.223175,205.836716 
M448.181580,213.406494 
	C447.514069,212.352539 446.846558,211.298569 446.179047,210.244614 
	C445.813660,210.477356 445.448273,210.710083 445.082886,210.942825 
	C445.953857,212.851868 446.824829,214.760910 447.695801,216.669952 
	C447.963348,216.611771 448.230865,216.553604 448.498383,216.495438 
	C448.498383,215.674637 448.498383,214.853851 448.181580,213.406494 
z"/>
<path fill="#2B2B2B" opacity="1.000000" stroke="none" 
	d="
M465.487244,241.988052 
	C464.938232,240.947922 464.772614,239.877289 465.165924,238.422760 
	C472.413269,238.135040 474.886292,240.604416 474.956512,247.301682 
	C474.987732,250.279236 474.883759,253.261093 475.018707,256.232941 
	C475.060608,257.155884 475.686218,258.052338 476.044586,258.960907 
	C476.686066,258.913025 477.327515,258.865112 477.968994,258.817200 
	C477.968994,255.205292 478.048859,251.591293 477.954346,247.981857 
	C477.643127,236.097946 472.813904,234.066238 465.012878,235.002548 
	C464.898712,234.550278 464.784515,234.098022 464.827240,233.324463 
	C476.816071,232.907364 479.994690,236.079239 479.997589,247.994247 
	C479.998322,250.987289 480.391693,254.062592 479.811188,256.940033 
	C479.503418,258.465637 477.492371,259.647644 476.250244,260.984741 
	C474.851318,259.637604 472.509033,258.452789 472.243683,256.910614 
	C471.631989,253.355545 472.072845,249.626114 472.006042,245.968903 
	C471.914276,240.945007 470.995270,240.366684 465.487244,241.988052 
z"/>
<path fill="none" opacity="1.000000" stroke="none" 
	d="
M281.989044,69.795708 
	C286.358093,67.745033 289.238953,69.371529 290.966827,72.906685 
	C292.479218,76.000984 291.399200,78.923363 288.479553,80.643845 
	C285.418640,82.447594 282.192505,82.116096 280.083801,79.081696 
	C277.783081,75.770950 278.254364,72.520233 281.989044,69.795708 
z"/>
<path fill="none" opacity="1.000000" stroke="none" 
	d="
M454.866760,328.450256 
	C453.298950,331.784607 450.719208,333.237854 447.810364,331.983673 
	C446.000946,331.203552 444.022522,328.975067 443.708649,327.126862 
	C443.439301,325.540497 444.988739,322.945038 446.498444,321.891479 
	C450.619232,319.015869 454.671967,322.114166 454.866760,328.450256 
z"/>
<path fill="#434343" opacity="1.000000" stroke="none" 
	d="
M490.011902,254.994263 
	C485.799561,252.017899 485.094025,248.336838 487.718994,241.242233 
	C487.999268,241.000153 487.972321,240.974792 487.974487,241.428894 
	C488.643158,246.268158 489.309723,250.653320 489.976288,255.038467 
	C489.976288,255.038467 489.998322,255.007675 490.011902,254.994263 
z"/>
<path fill="#434343" opacity="1.000000" stroke="none" 
	d="
M488.012512,241.013412 
	C488.457581,240.046631 488.889374,239.066605 489.659271,238.041809 
	C489.997345,237.997040 489.973633,237.972168 489.972778,238.323761 
	C489.305420,239.441833 488.638885,240.208328 487.972351,240.974792 
	C487.972321,240.974792 487.999268,241.000153 488.012512,241.013412 
z"/>
<path fill="#434343" opacity="1.000000" stroke="none" 
	d="
M491.233276,235.898758 
	C491.641876,236.330917 491.764923,236.834229 491.491943,237.739868 
	C490.721802,238.085495 490.347717,238.028824 489.973633,237.972168 
	C489.973633,237.972168 489.997345,237.997040 490.009583,238.009949 
	C490.330444,237.338562 490.639099,236.654236 491.233276,235.898758 
z"/>
<path fill="none" opacity="1.000000" stroke="none" 
	d="
M652.922302,133.998596 
	C651.691101,134.919586 650.463196,136.640045 649.228149,136.645172 
	C614.455505,136.789963 579.682068,136.761551 544.481934,136.761551 
	C544.481934,123.732368 544.481934,110.884842 544.481934,97.780014 
	C545.752686,97.696213 547.052063,97.536072 548.351501,97.535706 
	C581.637695,97.526314 614.923950,97.519981 648.210083,97.573868 
	C650.088989,97.576912 652.946106,96.455254 652.732300,101.075790 
	C652.790894,112.609894 652.856628,123.304245 652.922302,133.998596 
M592.500061,103.254105 
	C578.414490,103.254105 564.328918,103.254105 550.245239,103.254105 
	C550.245239,112.764702 550.245239,121.522438 550.245239,130.404327 
	C582.544922,130.404327 614.554565,130.404327 646.593750,130.404327 
	C646.593750,121.263107 646.593750,112.519592 646.593750,103.254143 
	C628.713623,103.254143 611.106873,103.254143 592.500061,103.254105 
z"/>
<path fill="none" opacity="1.000000" stroke="none" 
	d="
M544.671143,235.219330 
	C544.311096,222.311127 544.311096,209.689575 544.311096,196.759293 
	C580.279785,196.759293 616.159546,196.759293 652.398193,196.759293 
	C652.398193,209.635437 652.398193,222.339127 652.398193,235.505966 
	C616.514404,235.505966 580.772766,235.505966 544.671143,235.219330 
M570.500549,229.794434 
	C595.872620,229.794434 621.244690,229.794434 646.535034,229.794434 
	C646.535034,220.218674 646.535034,211.483704 646.535034,202.691772 
	C614.218811,202.691772 582.245483,202.691772 550.315247,202.691772 
	C550.315247,211.869385 550.315247,220.604065 550.315247,229.794373 
	C556.931580,229.794373 563.216248,229.794373 570.500549,229.794434 
z"/>
<path fill="none" opacity="1.000000" stroke="none" 
	d="
M652.805847,183.918732 
	C651.342529,184.119934 649.879333,184.495453 648.415894,184.496704 
	C614.806335,184.525604 581.196716,184.515625 547.587158,184.500275 
	C546.602661,184.499832 545.618225,184.362686 544.360901,184.268921 
	C544.360901,171.417114 544.360901,158.724960 544.360901,145.541840 
	C546.091370,145.541840 547.707397,145.541702 549.323364,145.541870 
	C582.101135,145.545395 614.878967,145.525253 647.656494,145.620361 
	C649.350220,145.625290 651.041138,146.615845 652.726929,148.031189 
	C652.748901,160.582840 652.777405,172.250778 652.805847,183.918732 
M603.500000,151.151138 
	C585.760315,151.151138 568.020630,151.151138 550.334229,151.151138 
	C550.334229,160.792236 550.334229,169.681961 550.334229,178.621979 
	C582.600342,178.621979 614.485291,178.621979 646.599976,178.621979 
	C646.599976,169.466812 646.599976,160.581940 646.599976,151.151154 
	C632.371582,151.151154 618.435791,151.151154 603.500000,151.151138 
z"/>
<path fill="none" opacity="1.000000" stroke="none" 
	d="
M613.832397,267.645142 
	C612.367249,275.540100 607.941528,280.351715 600.460815,281.621307 
	C594.225647,282.679504 588.962219,280.152649 585.399231,274.962860 
	C581.560486,269.371399 581.651184,263.407898 585.125183,257.613739 
	C588.172729,252.530731 594.693298,249.603363 600.542175,250.657440 
	C607.204529,251.858093 611.572998,255.737091 613.318176,262.326630 
	C613.735352,263.901917 613.695801,265.598114 613.832397,267.645142 
z"/>
<path fill="none" opacity="1.000000" stroke="none" 
	d="
M596.556030,303.326721 
	C602.489502,303.572540 605.339050,306.209717 604.802246,310.503357 
	C604.353638,314.091400 600.777893,317.069916 597.285156,315.867218 
	C595.148010,315.131317 592.760071,312.937439 592.012390,310.850952 
	C590.807068,307.487549 592.813354,304.813202 596.556030,303.326721 
z"/>
<path fill="#D9083C" opacity="1.000000" stroke="none" 
	d="
M653.140198,184.026978 
	C652.777405,172.250778 652.748901,160.582840 652.832458,148.457855 
	C653.628967,149.094025 654.891724,150.178741 654.907898,151.281708 
	C655.060181,161.674759 655.023560,172.071121 654.935791,182.465622 
	C654.931030,183.026230 653.983276,183.578873 653.140198,184.026978 
z"/>
<path fill="#D9083C" opacity="1.000000" stroke="none" 
	d="
M653.324890,133.914368 
	C652.856628,123.304245 652.790894,112.609894 652.835693,101.458206 
	C653.627869,101.925713 654.887695,102.841942 654.901611,103.776733 
	C655.041260,113.150047 655.000610,122.526649 654.915466,131.901459 
	C654.909546,132.547897 654.141235,133.187408 653.324890,133.914368 
z"/>
<path fill="#D9083C" opacity="1.000000" stroke="none" 
	d="
M489.972778,238.323746 
	C490.347717,238.028824 490.721802,238.085495 491.379059,238.118561 
	C491.733551,242.745697 491.804871,247.396454 491.806366,252.506165 
	C491.312866,253.563293 490.889160,254.161453 490.220886,254.899048 
	C489.309723,250.653320 488.643158,246.268158 487.974487,241.428909 
	C488.638885,240.208328 489.305420,239.441833 489.972778,238.323746 
z"/>
<path fill="none" opacity="1.000000" stroke="none" 
	d="
M518.564697,260.452087 
	C518.612732,260.524017 518.419189,260.545593 518.419189,260.545593 
	C518.419189,260.545593 518.516724,260.380157 518.564697,260.452087 
z"/>
<path fill="none" opacity="1.000000" stroke="none" 
	d="
M357.798096,231.881744 
	C366.422028,228.947327 371.406464,237.397797 371.936584,243.984589 
	C372.269684,248.123505 372.501740,252.396652 371.808624,256.443329 
	C371.411621,258.760956 369.071991,260.745819 367.606964,262.880493 
	C365.742126,260.789490 362.944885,258.968475 362.242096,256.541046 
	C361.307037,253.311340 362.171967,249.596817 361.914062,246.116486 
	C361.813385,244.758072 360.763550,243.469955 360.146057,242.149826 
	C359.432953,243.540192 358.239319,244.885498 358.103851,246.330032 
	C357.794067,249.633698 358.052704,252.986938 357.984467,256.318054 
	C357.917786,259.571228 356.447937,261.604095 352.551758,261.875977 
	C352.266754,260.164246 352.006866,258.603394 351.732422,256.954987 
	C351.140442,257.505554 350.580444,258.026367 348.995728,259.500214 
	C348.995728,254.334213 349.151550,250.130615 348.903961,245.950897 
	C348.826294,244.639908 347.663422,243.393173 346.997253,242.117035 
	C346.000732,243.354172 344.303680,244.507874 344.144470,245.844727 
	C343.733521,249.295258 343.945374,252.827835 344.016449,256.325470 
	C344.077667,259.339386 343.285187,261.804016 339.833374,261.918610 
	C336.259277,262.037231 334.143250,259.878296 334.067993,256.423859 
	C333.901367,248.774750 332.450806,240.489395 338.639526,234.543839 
	C340.922760,232.350311 345.331299,232.070343 348.862915,231.570526 
	C351.634521,231.178284 354.548309,231.790848 357.798096,231.881744 
M353.939667,244.641525 
	C353.848633,244.504272 353.774933,244.348770 353.658569,244.238205 
	C353.607544,244.189758 353.382812,244.232880 353.382812,244.234863 
	C353.370605,248.394394 353.370667,252.553955 353.370667,256.713531 
	C353.576752,256.709229 353.782837,256.704926 353.988922,256.700623 
	C353.988922,252.935944 353.988922,249.171265 353.939667,244.641525 
z"/>
<path fill="none" opacity="1.000000" stroke="none" 
	d="
M251.002197,246.670013 
	C249.991425,250.419510 249.544708,254.074173 247.747299,256.856171 
	C246.754349,258.393066 243.496933,258.466919 240.810577,259.347778 
	C240.829193,259.416534 241.087921,260.372437 241.347366,261.330994 
	C233.220779,263.067413 229.803070,261.578156 225.180923,254.332413 
	C221.964767,249.290741 222.302872,242.550537 226.024261,237.519821 
	C230.036362,232.096069 234.301834,230.671356 242.054871,232.598007 
	C242.054871,229.838425 241.413834,227.013702 242.255463,224.737106 
	C242.942490,222.878677 245.400711,221.675049 247.073639,220.181107 
	C248.569611,222.069321 251.241104,223.893433 251.348206,225.857391 
	C251.716766,232.615479 251.188736,239.422485 251.002197,246.670013 
M238.898697,251.398712 
	C240.152863,248.278152 241.407013,245.157593 242.843796,241.582642 
	C235.733734,241.252136 233.566376,242.365448 233.196350,246.067017 
	C232.843674,249.595062 234.419785,251.755157 238.898697,251.398712 
z"/>
<path fill="none" opacity="1.000000" stroke="none" 
	d="
M321.454651,232.219452 
	C327.199066,235.584930 330.320648,240.043289 330.032288,246.584213 
	C329.867889,250.313293 330.276001,254.082825 329.912689,257.783752 
	C329.534546,261.636047 327.207092,262.739075 323.510529,261.302948 
	C322.107544,260.757874 319.941772,260.156830 318.987915,260.821503 
	C314.658875,263.838135 310.721222,261.456573 308.118439,259.108307 
	C304.126556,255.506790 300.853149,250.677811 302.179504,244.647629 
	C302.506744,243.159882 304.341370,242.003708 305.512695,240.661118 
	C305.887848,239.003189 305.668884,235.908890 306.953583,235.041458 
	C311.105865,232.237717 315.592163,229.141022 321.454651,232.219452 
z"/>
<path fill="none" opacity="1.000000" stroke="none" 
	d="
M282.070374,261.484680 
	C274.196808,256.658081 273.155273,251.488037 274.596466,241.663025 
	C275.555878,235.122467 279.552368,232.706741 284.314514,231.316101 
	C289.143921,229.905838 293.766998,231.987732 297.328247,235.821259 
	C299.687561,238.360947 299.659576,240.787704 297.250366,243.248322 
	C294.999420,245.547272 292.771057,247.868347 290.532745,250.179688 
	C290.743195,250.647034 290.953613,251.114365 291.164032,251.581696 
	C292.857056,251.734177 294.571503,251.767014 296.238281,252.065811 
	C299.086578,252.576416 301.245270,253.746490 301.023132,257.266022 
	C300.813019,260.595276 299.101135,262.061584 295.896881,261.994263 
	C291.412903,261.900085 286.929626,261.772705 282.070374,261.484680 
z"/>
<path fill="none" opacity="1.000000" stroke="none" 
	d="
M425.979675,248.921082 
	C425.998840,250.922134 425.998840,252.563293 425.998840,254.628830 
	C424.530823,254.145264 423.562439,253.826263 422.190094,253.374191 
	C422.347443,255.162811 422.469513,256.550201 422.639221,258.478882 
	C420.899017,258.399780 419.520081,258.337097 417.746399,258.256470 
	C417.605652,259.337738 417.455566,260.490692 417.309784,261.610718 
	C406.608093,262.828308 402.008636,258.707947 402.000854,248.039139 
	C401.996735,242.375580 401.744476,236.694214 402.137146,231.057999 
	C402.277405,229.044586 403.986725,227.140503 404.979858,225.186508 
	C407.040253,226.245667 409.111298,227.284790 411.157654,228.370392 
	C412.753845,229.217178 414.249573,230.310211 415.924438,230.930862 
	C416.950623,231.311127 418.611511,230.527649 419.326935,231.096863 
	C421.706421,232.990158 425.176483,234.993561 425.645264,237.448090 
	C426.291229,240.830338 422.673492,241.964844 419.438843,241.995163 
	C417.285583,242.015350 415.131989,241.999008 412.081909,241.999008 
	C412.081909,244.705582 411.941559,247.117111 412.164307,249.494614 
	C412.234467,250.243179 413.278503,250.900513 413.876801,251.599594 
	C414.544373,250.985947 415.824890,250.326248 415.782806,249.765930 
	C415.436981,245.163589 418.723114,244.878143 420.902771,244.519699 
	C422.990784,246.188187 424.475616,247.374680 425.979675,248.921082 
z"/>
<path fill="none" opacity="1.000000" stroke="none" 
	d="
M430.937225,227.050323 
	C427.452026,223.589386 426.345490,219.763458 426.982269,215.199646 
	C427.791534,209.399414 433.067352,207.119217 438.485016,209.072174 
	C445.709473,211.676453 445.692810,218.259552 447.503571,223.678070 
	C447.848694,224.710831 444.167847,228.103943 441.874054,228.757782 
	C438.697327,229.663284 438.172791,230.443573 438.594421,233.777893 
	C439.526794,241.150879 439.623505,248.632767 439.979248,256.074127 
	C440.162750,259.913147 437.373901,261.786743 434.373291,261.662689 
	C432.857971,261.600037 430.240082,258.565063 430.220947,256.850586 
	C430.111542,247.048965 430.633575,237.240295 430.937225,227.050323 
M437.140167,214.182755 
	C442.744720,216.735519 439.465393,221.602173 439.633942,226.149521 
	C443.322235,222.567139 444.098602,219.482330 441.437775,215.627121 
	C439.633667,213.013199 437.971069,211.007645 433.668671,213.050552 
	C435.086365,213.558517 435.754242,213.797836 437.140167,214.182755 
M435.956726,228.772736 
	C435.655334,228.212357 435.353943,227.651978 435.052551,227.091583 
	C434.552643,227.362198 434.052765,227.632828 433.552887,227.903473 
	C434.138092,228.244553 434.723328,228.585632 435.956726,228.772736 
z"/>
<path fill="none" opacity="1.000000" stroke="none" 
	d="
M381.999817,242.422028 
	C383.730103,234.156143 389.764557,229.799072 396.071259,231.458420 
	C399.355621,232.322571 400.845551,234.319366 399.834503,237.180801 
	C399.167236,239.069183 397.050171,240.531860 395.370850,241.931519 
	C394.739197,242.458008 393.511078,242.268906 392.573120,242.403412 
	C392.013367,246.222778 391.714050,249.846695 390.913666,253.356323 
	C389.704285,258.659485 385.363129,261.922791 380.158600,262.020813 
	C377.281708,262.075012 374.707642,261.733856 374.071869,258.317413 
	C373.472595,255.096985 374.726013,252.782974 377.851379,251.620895 
	C379.070129,251.167740 380.328003,250.819778 381.998779,250.286392 
	C381.998779,247.787613 381.998779,245.321442 381.999817,242.422028 
z"/>
<path fill="none" opacity="1.000000" stroke="none" 
	d="
M262.112976,260.201172 
	C258.092712,262.850464 254.369537,261.197845 254.083481,256.741913 
	C253.786652,252.118515 253.753525,247.437653 254.119644,242.822754 
	C254.551178,237.383530 258.650818,232.501511 263.886475,231.765030 
	C265.954651,231.474121 269.109467,232.861099 270.393799,234.537811 
	C272.093506,236.756790 271.368958,239.904358 268.294250,241.043533 
	C265.074158,242.236572 264.996674,244.449997 264.920197,247.268677 
	C264.803314,251.574966 266.452911,256.364136 262.112976,260.201172 
z"/>
<path fill="#D9083C" opacity="1.000000" stroke="none" 
	d="
M464.875549,235.366837 
	C472.813904,234.066238 477.643127,236.097946 477.954346,247.981857 
	C478.048859,251.591293 477.968994,255.205292 477.968994,258.817200 
	C477.327515,258.865112 476.686066,258.913025 476.044586,258.960907 
	C475.686218,258.052338 475.060608,257.155884 475.018707,256.232941 
	C474.883759,253.261093 474.987732,250.279236 474.956512,247.301682 
	C474.886292,240.604416 472.413269,238.135040 465.303497,238.032379 
	C464.834198,237.260956 464.786224,236.496048 464.875549,235.366837 
z"/>
<path fill="none" opacity="1.000000" stroke="none" 
	d="
M431.920288,205.611847 
	C434.994507,203.142258 438.202179,203.639618 442.676178,207.232788 
	C439.049438,206.748413 435.636292,206.292572 431.920288,205.611847 
z"/>
<path fill="none" opacity="1.000000" stroke="none" 
	d="
M422.995636,213.997345 
	C422.928406,210.140656 424.029175,207.138885 427.621643,205.960999 
	C428.055084,206.279175 428.488525,206.597366 428.921967,206.915543 
	C427.130005,209.151215 425.338043,211.386887 423.273071,213.811279 
	C423.000000,214.000031 422.995636,213.997345 422.995636,213.997345 
z"/>
<path fill="none" opacity="1.000000" stroke="none" 
	d="
M448.339966,213.719772 
	C448.498383,214.853851 448.498383,215.674637 448.498383,216.495438 
	C448.230865,216.553604 447.963348,216.611771 447.695801,216.669952 
	C446.824829,214.760910 445.953857,212.851868 445.082886,210.942825 
	C445.448273,210.710083 445.813660,210.477356 446.179047,210.244614 
	C446.846558,211.298569 447.514069,212.352539 448.339966,213.719772 
z"/>
<path fill="none" opacity="1.000000" stroke="none" 
	d="
M423.002441,214.002502 
	C423.004883,216.294281 423.004883,218.583588 423.004883,220.872894 
	C422.682892,220.865692 422.360870,220.858490 422.038879,220.851288 
	C422.168213,218.744720 422.297546,216.638138 422.711273,214.264465 
	C422.995636,213.997345 423.000000,214.000031 423.002441,214.002502 
z"/>
<path fill="#D9083C" opacity="1.000000" stroke="none" 
	d="
M593.000122,103.254120 
	C611.106873,103.254143 628.713623,103.254143 646.593750,103.254143 
	C646.593750,112.519592 646.593750,121.263107 646.593750,130.404327 
	C614.554565,130.404327 582.544922,130.404327 550.245239,130.404327 
	C550.245239,121.522438 550.245239,112.764702 550.245239,103.254105 
	C564.328918,103.254105 578.414490,103.254105 593.000122,103.254120 
z"/>
<path fill="#D9083C" opacity="1.000000" stroke="none" 
	d="
M570.000732,229.794403 
	C563.216248,229.794373 556.931580,229.794373 550.315247,229.794373 
	C550.315247,220.604065 550.315247,211.869385 550.315247,202.691772 
	C582.245483,202.691772 614.218811,202.691772 646.535034,202.691772 
	C646.535034,211.483704 646.535034,220.218674 646.535034,229.794434 
	C621.244690,229.794434 595.872620,229.794434 570.000732,229.794403 
z"/>
<path fill="#D9083C" opacity="1.000000" stroke="none" 
	d="
M604.000000,151.151154 
	C618.435791,151.151154 632.371582,151.151154 646.599976,151.151154 
	C646.599976,160.581940 646.599976,169.466812 646.599976,178.621979 
	C614.485291,178.621979 582.600342,178.621979 550.334229,178.621979 
	C550.334229,169.681961 550.334229,160.792236 550.334229,151.151138 
	C568.020630,151.151138 585.760315,151.151138 604.000000,151.151154 
z"/>
<path fill="none" opacity="1.000000" stroke="none" 
	d="
M353.964294,245.024048 
	C353.988922,249.171265 353.988922,252.935944 353.988922,256.700623 
	C353.782837,256.704926 353.576752,256.709229 353.370667,256.713531 
	C353.370667,252.553955 353.370605,248.394394 353.382812,244.234863 
	C353.382812,244.232880 353.607544,244.189758 353.658569,244.238205 
	C353.774933,244.348770 353.848633,244.504272 353.964294,245.024048 
z"/>
<path fill="none" opacity="1.000000" stroke="none" 
	d="
M238.567688,251.580109 
	C234.419785,251.755157 232.843674,249.595062 233.196350,246.067017 
	C233.566376,242.365448 235.733734,241.252136 242.843796,241.582642 
	C241.407013,245.157593 240.152863,248.278152 238.567688,251.580109 
z"/>
<path fill="none" opacity="1.000000" stroke="none" 
	d="
M436.781158,214.109955 
	C435.754242,213.797836 435.086365,213.558517 433.668671,213.050552 
	C437.971069,211.007645 439.633667,213.013199 441.437775,215.627121 
	C444.098602,219.482330 443.322235,222.567139 439.633942,226.149521 
	C439.465393,221.602173 442.744720,216.735519 436.781158,214.109955 
z"/>
<path fill="none" opacity="1.000000" stroke="none" 
	d="
M435.632629,228.849716 
	C434.723328,228.585632 434.138092,228.244553 433.552887,227.903473 
	C434.052765,227.632828 434.552643,227.362198 435.052551,227.091583 
	C435.353943,227.651978 435.655334,228.212357 435.632629,228.849716 
z"/>
</svg>