<svg version="1.1" id="Layer_1" xmlns="http://www.w3.org/2000/svg" xmlns:xlink="http://www.w3.org/1999/xlink" x="0px" y="0px"
	 width="100%" viewBox="0 0 622 618" enable-background="new 0 0 622 618" xml:space="preserve">
<path fill="none" opacity="1.000000" stroke="#D9083C" stroke-linecap="round" stroke-linejoin="round" stroke-width="5.000000"
	d="
M408.500000,302.500000 
	C412.417450,302.500000 416.334900,302.500000 420.046539,302.500000 
	C421.264435,300.433044 420.995270,298.444611 420.995514,296.500000 
	C421.001221,245.833328 420.885620,195.166153 421.117004,144.500534 
	C421.153870,136.427353 415.144165,128.329498 405.499420,128.374771 
	C350.500610,128.632843 295.500000,128.494858 240.500000,128.505676 
	C232.458466,128.507248 226.733047,133.858871 226.500000,141.500000 
"/>
<path fill="none" opacity="1.000000" stroke="#D9083C" stroke-linecap="round" stroke-linejoin="round" stroke-width="6.000000"
	d="
M212.500000,203.500000 
	C212.500000,188.166672 212.481689,172.833298 212.506653,157.500015 
	C212.522507,147.762207 219.274734,141.454498 229.000549,141.989899 
	C230.329849,142.063080 231.666672,142.000000 233.000000,142.000000 
	C285.333344,142.000000 337.666656,142.000000 390.000000,142.000000 
	C402.140564,142.000000 407.500000,147.359436 407.500000,159.500000 
	C407.500000,205.000000 407.500000,250.500000 407.500000,296.000000 
	C407.500000,302.500000 407.500000,309.000000 407.500000,315.500000 
"/>
<path fill="none" opacity="1.000000" stroke="#D9083C" stroke-linecap="round" stroke-linejoin="round" stroke-width="6.000000"
	d="
M212.500000,256.000000 
	C212.500000,302.000000 212.500000,348.000000 212.500000,394.000000 
	C212.500000,410.166656 212.985443,426.353760 212.307098,442.491882 
	C211.935562,451.331085 217.666412,458.887329 228.000214,459.496246 
	C228.498489,459.525635 229.000000,459.500000 229.500000,459.500000 
	C283.166656,459.500000 336.833344,459.482483 390.500000,459.514801 
	C401.238007,459.521271 408.144775,452.398163 407.700989,441.991425 
	C406.963165,424.689545 407.500000,407.333344 407.500000,390.000000 
"/>
<path fill="none" opacity="1.000000" stroke="#D9083C" stroke-linecap="round" stroke-linejoin="round" stroke-width="6.000000"
	d="
M407.000000,316.000000 
	C405.166656,316.166687 403.333557,316.475586 401.499969,316.478333 
	C379.333374,316.511780 357.166656,316.496368 335.000000,316.502594 
	C329.518829,316.504120 329.504333,316.518829 329.502594,322.000000 
	C329.496094,342.333344 329.496124,362.666656 329.502594,383.000000 
	C329.504364,388.481171 329.518829,388.495850 335.000000,388.497406 
	C356.833344,388.503693 378.666656,388.500000 400.500000,388.500000 
	C411.500000,388.500000 422.500000,388.506683 433.500000,388.493408 
	C435.344116,388.491180 437.219696,388.749939 439.198914,387.867279 
	C439.293396,386.339783 439.484863,384.669983 439.486542,383.000000 
	C439.507202,362.666656 439.503937,342.333344 439.497437,322.000000 
	C439.495697,316.518829 439.478882,316.612671 434.000519,316.478424 
	C425.334290,316.266022 416.648590,317.106049 408.000000,316.000000 
"/>
<path fill="none" opacity="1.000000" stroke="#D9083C" stroke-linecap="round" stroke-linejoin="round" stroke-width="6.000000"
	d="
M370.500000,471.500000 
	C304.500000,471.500000 238.500000,471.500000 172.500000,471.500000 
"/>
<path fill="none" opacity="1.000000" stroke="#D9083C" stroke-linecap="round" stroke-linejoin="round" stroke-width="5.000000"
	d="
M214.000000,402.500000 
	C216.000000,402.666656 217.999939,402.978180 220.000015,402.979004 
	C282.166656,403.004669 344.333344,403.000000 406.500000,403.000000 
"/>
<path fill="none" opacity="1.000000" stroke="#D9083C" stroke-linecap="round" stroke-linejoin="round" stroke-width="6.000000"
	d="
M455.500000,483.500000 
	C396.833344,483.500000 338.166656,483.500000 279.500000,483.500000 
"/>
<path fill="none" opacity="1.000000" stroke="#D9083C" stroke-linecap="round" stroke-linejoin="round" stroke-width="6.000000"
	d="
M214.000000,179.500000 
	C269.500000,179.500000 325.000000,179.500000 380.500000,179.500000 
"/>
<path fill="none" opacity="1.000000" stroke="#D9083C" stroke-linecap="round" stroke-linejoin="round" stroke-width="6.000000"
	d="
M382.500000,252.000000 
	C379.500000,251.833344 376.500122,251.524506 373.499969,251.521683 
	C337.833344,251.488052 302.166656,251.500000 266.500000,251.500000 
"/>
<path fill="none" opacity="1.000000" stroke="#D9083C" stroke-linecap="round" stroke-linejoin="round" stroke-width="5.000000"
	d="
M382.500000,235.000000 
	C344.000000,235.000000 305.500000,235.000000 267.000000,235.000000 
"/>
<path fill="none" opacity="1.000000" stroke="#D9083C" stroke-linecap="round" stroke-linejoin="round" stroke-width="6.000000"
	d="
M382.500000,268.000000 
	C379.500000,268.166687 376.500153,268.475250 373.499969,268.478271 
	C339.666656,268.512604 305.833344,268.503540 272.000000,268.489380 
	C270.333313,268.488678 268.666656,268.333313 267.000000,268.250000 
"/>
<path fill="none" opacity="1.000000" stroke="#D9083C" stroke-linecap="round" stroke-linejoin="round" stroke-width="6.000000"
	d="
M212.000000,204.000000 
	C206.000000,204.000000 199.999969,203.986923 194.000015,204.003571 
	C187.629776,204.021271 187.501663,204.158783 187.500641,210.500000 
	C187.498566,223.500000 187.633942,236.502213 187.418915,249.498657 
	C187.353851,253.429611 188.570618,254.643707 192.501297,254.581085 
	C205.831238,254.368713 219.168762,254.368713 232.498703,254.581085 
	C236.429382,254.643692 237.643692,253.429382 237.581055,249.498703 
	C237.368683,236.168762 237.510208,222.833313 237.485870,209.500031 
	C237.483124,207.996597 237.285370,206.493515 237.171677,204.900894 
	C229.037903,203.756836 220.959198,205.312500 213.000000,204.000000 
"/>
<path fill="none" opacity="1.000000" stroke="#D9083C" stroke-linecap="round" stroke-linejoin="round" stroke-width="6.000000"
	d="
M427.000000,370.250000 
	C404.500000,370.333344 382.000031,370.457550 359.499969,370.473877 
	C353.166748,370.478455 346.833344,370.166687 340.500000,370.000000 
"/>
<path fill="none" opacity="1.000000" stroke="#D9083C" stroke-linecap="round" stroke-linejoin="round" stroke-width="6.000000"
	d="
M427.500000,357.500000 
	C401.000000,357.500000 374.500000,357.500000 348.000000,357.500000 
	C345.833344,357.500000 343.666656,357.500000 341.500000,357.500000 
"/>
<path fill="none" opacity="1.000000" stroke="#D9083C" stroke-linecap="round" stroke-linejoin="round" stroke-width="6.000000"
	d="
M427.500000,344.500000 
	C401.000000,344.500000 374.500000,344.500000 348.000000,344.500000 
	C345.833344,344.500000 343.666656,344.500000 341.500000,344.500000 
"/>
<path fill="none" opacity="1.000000" stroke="#D9083C" stroke-linecap="round" stroke-linejoin="round" stroke-width="6.000000"
	d="
M343.500000,218.500000 
	C317.833344,218.500000 292.166656,218.500000 266.500000,218.500000 
"/>
<path fill="none" opacity="1.000000" stroke="#D9083C" stroke-linecap="round" stroke-linejoin="round" stroke-width="5.000000"
	d="
M319.000000,202.000000 
	C301.666656,202.000000 284.333344,202.000000 267.000000,202.000000 
"/>
<path fill="none" opacity="1.000000" stroke="#D9083C" stroke-linecap="round" stroke-linejoin="round" stroke-width="6.000000"
	d="
M381.000000,332.000000 
	C376.031158,330.898285 370.994995,331.539642 366.000183,331.556274 
	C357.500793,331.584534 348.983185,330.976440 340.500000,332.000000 
"/>
<path fill="none" opacity="1.000000" stroke="#D9083C" stroke-linecap="round" stroke-linejoin="round" stroke-width="6.000000"
	d="
M325.500000,162.500000 
	C315.166656,162.500000 304.833344,162.500000 294.500000,162.500000 
"/>
<path fill="none" opacity="1.000000" stroke="#D9083C" stroke-linecap="round" stroke-linejoin="round" stroke-width="6.000000"
	d="
M402.500000,471.500000 
	C395.833344,471.500000 389.166656,471.500000 382.500000,471.500000 
"/>
<path fill="none" opacity="1.000000" stroke="#D9083C" stroke-linecap="round" stroke-linejoin="round" stroke-width="6.000000"
	d="
M268.500000,483.500000 
	C262.666656,483.583344 256.833344,483.666656 251.000000,483.750000 
"/>
<path fill="none" opacity="1.000000" stroke="#D9083C" stroke-linecap="round" stroke-linejoin="round" stroke-width="6.000000"
	d="
M223.000000,229.250000 
	C215.161972,229.607346 207.325150,229.852936 199.500000,229.000000 
"/>
<path fill="none" opacity="1.000000" stroke="#D9083C" stroke-linecap="round" stroke-linejoin="round" stroke-width="6.000000"
	d="
M212.500000,217.500000 
	C212.500000,225.166672 212.500000,232.833328 212.500000,240.500000 
"/>
<path fill="none" opacity="1.000000" stroke="#D9083C" stroke-linecap="round" stroke-linejoin="round" stroke-width="3.000000"
	d="
M190.000000,384.500000 
	C190.166656,387.166656 190.333328,389.833344 190.500000,392.500000 
"/>
<path fill="none" opacity="1.000000" stroke="#D9083C" stroke-linecap="round" stroke-linejoin="round" stroke-width="5.000000"
	d="
M307.500000,420.500000 
	C297.893341,423.569550 297.314453,434.214569 302.982697,439.020416 
	C306.035706,441.608917 311.897980,442.445862 315.000000,440.500000 
	C319.387695,437.747589 321.877808,432.395172 320.448242,428.016907 
	C319.377258,424.736908 315.075592,419.847778 310.497742,420.483795 
	C309.680176,420.597382 308.833344,420.500000 308.000000,420.500000 
"/>
</svg>